<svg width="71" height="69" viewBox="0 0 71 69" fill="none" xmlns="http://www.w3.org/2000/svg">
<path d="M35.4875 68C54.033 68 69.0671 53.0015 69.0671 34.5C69.0671 15.9985 54.033 1 35.4875 1C16.942 1 1.90784 15.9985 1.90784 34.5C1.90784 53.0015 16.942 68 35.4875 68Z" stroke="#EB0000" stroke-width="2" stroke-linecap="round" stroke-linejoin="round"/>
<path d="M35.4875 5.78589V13.0334V16.4208" stroke="#EB0000" stroke-width="2" stroke-linecap="round" stroke-linejoin="round"/>
<path d="M35.4875 52.5793V59.8268V63.2143" stroke="#EB0000" stroke-width="2" stroke-linecap="round" stroke-linejoin="round"/>
<path d="M64.2691 33.4365L57.005 33.5351L53.6099 33.5812" stroke="#EB0000" stroke-width="2" stroke-linecap="round" stroke-linejoin="round"/>
<path d="M17.3642 33.4365L10.1001 33.5351L6.70496 33.5812" stroke="#EB0000" stroke-width="2" stroke-linecap="round" stroke-linejoin="round"/>
<mask id="path-6-outside-1_173_279" maskUnits="userSpaceOnUse" x="20.5632" y="22.5476" width="16" height="12" fill="black">
<rect fill="white" x="20.5632" y="22.5476" width="16" height="12"/>
<path d="M21.2652 33.5476V32.6636L23.9432 29.7646C24.4719 29.2013 24.8922 28.7376 25.2042 28.3736C25.5249 28.0096 25.7589 27.6846 25.9062 27.3986C26.0536 27.1126 26.1272 26.8093 26.1272 26.4886C26.1272 25.9599 25.9712 25.5526 25.6592 25.2666C25.3472 24.9806 24.9356 24.8376 24.4242 24.8376C23.9042 24.8376 23.4622 24.9893 23.0982 25.2926C22.7342 25.5873 22.4829 26.0076 22.3442 26.5536L21.1872 26.2546C21.2999 25.7346 21.5079 25.2839 21.8112 24.9026C22.1146 24.5213 22.4916 24.2266 22.9422 24.0186C23.3929 23.8106 23.8869 23.7066 24.4242 23.7066C25.0136 23.7066 25.5292 23.8236 25.9712 24.0576C26.4219 24.2829 26.7729 24.5993 27.0242 25.0066C27.2842 25.4139 27.4142 25.8863 27.4142 26.4236C27.4142 26.7789 27.3406 27.1256 27.1932 27.4636C27.0459 27.8016 26.8292 28.1613 26.5432 28.5426C26.2572 28.9153 25.8846 29.3486 25.4252 29.8426L23.0332 32.4426H27.6222V33.5476H21.2652ZM33.3925 33.5476V31.3116H28.6345V30.2586L33.3665 23.8626H34.5885V30.2586H35.8495V31.3116H34.5885V33.5476H33.3925ZM29.5965 30.7136L29.4145 30.2586H33.3925V24.9286L33.7695 25.0326L29.5965 30.7136Z"/>
</mask>
<path d="M21.2652 33.5476V32.6636L23.9432 29.7646C24.4719 29.2013 24.8922 28.7376 25.2042 28.3736C25.5249 28.0096 25.7589 27.6846 25.9062 27.3986C26.0536 27.1126 26.1272 26.8093 26.1272 26.4886C26.1272 25.9599 25.9712 25.5526 25.6592 25.2666C25.3472 24.9806 24.9356 24.8376 24.4242 24.8376C23.9042 24.8376 23.4622 24.9893 23.0982 25.2926C22.7342 25.5873 22.4829 26.0076 22.3442 26.5536L21.1872 26.2546C21.2999 25.7346 21.5079 25.2839 21.8112 24.9026C22.1146 24.5213 22.4916 24.2266 22.9422 24.0186C23.3929 23.8106 23.8869 23.7066 24.4242 23.7066C25.0136 23.7066 25.5292 23.8236 25.9712 24.0576C26.4219 24.2829 26.7729 24.5993 27.0242 25.0066C27.2842 25.4139 27.4142 25.8863 27.4142 26.4236C27.4142 26.7789 27.3406 27.1256 27.1932 27.4636C27.0459 27.8016 26.8292 28.1613 26.5432 28.5426C26.2572 28.9153 25.8846 29.3486 25.4252 29.8426L23.0332 32.4426H27.6222V33.5476H21.2652ZM33.3925 33.5476V31.3116H28.6345V30.2586L33.3665 23.8626H34.5885V30.2586H35.8495V31.3116H34.5885V33.5476H33.3925ZM29.5965 30.7136L29.4145 30.2586H33.3925V24.9286L33.7695 25.0326L29.5965 30.7136Z" fill="#EB0000"/>
<path d="M21.2652 33.5476H21.0152V33.7976H21.2652V33.5476ZM21.2652 32.6636L21.0816 32.494L21.0152 32.5658V32.6636H21.2652ZM23.9432 29.7646L23.7609 29.5935L23.7596 29.595L23.9432 29.7646ZM25.2042 28.3736L25.0166 28.2083L25.0144 28.2109L25.2042 28.3736ZM25.9062 27.3986L25.684 27.2841L25.684 27.2841L25.9062 27.3986ZM23.0982 25.2926L23.2555 25.4869L23.2583 25.4847L23.0982 25.2926ZM22.3442 26.5536L22.2817 26.7957L22.5247 26.8585L22.5865 26.6151L22.3442 26.5536ZM21.1872 26.2546L20.9429 26.2017L20.892 26.4365L21.1247 26.4967L21.1872 26.2546ZM21.8112 24.9026L22.0069 25.0582L22.0069 25.0582L21.8112 24.9026ZM25.9712 24.0576L25.8542 24.2786L25.8594 24.2812L25.9712 24.0576ZM27.0242 25.0066L26.8114 25.1379L26.8135 25.1411L27.0242 25.0066ZM27.1932 27.4636L27.4224 27.5635L27.4224 27.5635L27.1932 27.4636ZM26.5432 28.5426L26.7416 28.6948L26.7432 28.6926L26.5432 28.5426ZM25.4252 29.8426L25.2421 29.6724L25.2412 29.6733L25.4252 29.8426ZM23.0332 32.4426L22.8492 32.2733L22.4635 32.6926H23.0332V32.4426ZM27.6222 32.4426H27.8722V32.1926H27.6222V32.4426ZM27.6222 33.5476V33.7976H27.8722V33.5476H27.6222ZM21.5152 33.5476V32.6636H21.0152V33.5476H21.5152ZM21.4489 32.8332L24.1269 29.9342L23.7596 29.595L21.0816 32.494L21.4489 32.8332ZM24.1255 29.9357C24.6554 29.371 25.0786 28.9043 25.394 28.5363L25.0144 28.2109C24.7059 28.5709 24.2884 29.0315 23.7609 29.5935L24.1255 29.9357ZM25.3918 28.5389C25.72 28.1664 25.9683 27.8241 26.1285 27.5131L25.684 27.2841C25.5495 27.5451 25.3298 27.8528 25.0166 28.2083L25.3918 28.5389ZM26.1285 27.5131C26.294 27.1918 26.3772 26.8492 26.3772 26.4886H25.8772C25.8772 26.7693 25.8131 27.0334 25.684 27.2841L26.1285 27.5131ZM26.3772 26.4886C26.3772 25.9086 26.2042 25.427 25.8282 25.0823L25.4903 25.4509C25.7383 25.6782 25.8772 26.0113 25.8772 26.4886H26.3772ZM25.8282 25.0823C25.4609 24.7456 24.9844 24.5876 24.4242 24.5876V25.0876C24.8867 25.0876 25.2336 25.2156 25.4903 25.4509L25.8282 25.0823ZM24.4242 24.5876C23.8519 24.5876 23.3516 24.756 22.9382 25.1006L23.2583 25.4847C23.5729 25.2225 23.9566 25.0876 24.4242 25.0876V24.5876ZM22.9409 25.0983C22.5271 25.4333 22.2511 25.9047 22.1019 26.4921L22.5865 26.6151C22.7147 26.1105 22.9414 25.7412 23.2555 25.4869L22.9409 25.0983ZM22.4068 26.3116L21.2498 26.0126L21.1247 26.4967L22.2817 26.7957L22.4068 26.3116ZM21.4316 26.3075C21.5369 25.8216 21.7296 25.4068 22.0069 25.0582L21.6156 24.747C21.2862 25.161 21.0629 25.6477 20.9429 26.2017L21.4316 26.3075ZM22.0069 25.0582C22.2854 24.708 22.6311 24.4376 23.047 24.2456L22.8375 23.7916C22.352 24.0157 21.9437 24.3345 21.6156 24.747L22.0069 25.0582ZM23.047 24.2456C23.4622 24.054 23.92 23.9566 24.4242 23.9566V23.4566C23.8538 23.4566 23.3236 23.5672 22.8375 23.7916L23.047 24.2456ZM24.4242 23.9566C24.9801 23.9566 25.4542 24.0668 25.8543 24.2786L26.0882 23.8367C25.6042 23.5804 25.0471 23.4566 24.4242 23.4566V23.9566ZM25.8594 24.2812C26.2708 24.4869 26.5859 24.7722 26.8115 25.1379L27.237 24.8753C26.9599 24.4263 26.573 24.079 26.083 23.834L25.8594 24.2812ZM26.8135 25.1411C27.045 25.5039 27.1642 25.9284 27.1642 26.4236H27.6642C27.6642 25.8441 27.5234 25.324 27.235 24.8721L26.8135 25.1411ZM27.1642 26.4236C27.1642 26.7433 27.0982 27.056 26.9641 27.3637L27.4224 27.5635C27.5829 27.1952 27.6642 26.8146 27.6642 26.4236H27.1642ZM26.9641 27.3637C26.8263 27.6796 26.6208 28.0225 26.3432 28.3926L26.7432 28.6926C27.0377 28.3 27.2655 27.9236 27.4224 27.5635L26.9641 27.3637ZM26.3449 28.3904C26.0653 28.7548 25.6982 29.1819 25.2421 29.6724L25.6083 30.0128C26.0709 29.5153 26.4492 29.0758 26.7416 28.6948L26.3449 28.3904ZM25.2412 29.6733L22.8492 32.2733L23.2172 32.6119L25.6092 30.0119L25.2412 29.6733ZM23.0332 32.6926H27.6222V32.1926H23.0332V32.6926ZM27.3722 32.4426V33.5476H27.8722V32.4426H27.3722ZM27.6222 33.2976H21.2652V33.7976H27.6222V33.2976ZM33.3925 33.5476H33.1425V33.7976H33.3925V33.5476ZM33.3925 31.3116H33.6425V31.0616H33.3925V31.3116ZM28.6345 31.3116H28.3845V31.5616H28.6345V31.3116ZM28.6345 30.2586L28.4335 30.1099L28.3845 30.1762V30.2586H28.6345ZM33.3665 23.8626V23.6126H33.2405L33.1655 23.7139L33.3665 23.8626ZM34.5885 23.8626H34.8385V23.6126H34.5885V23.8626ZM34.5885 30.2586H34.3385V30.5086H34.5885V30.2586ZM35.8495 30.2586H36.0995V30.0086H35.8495V30.2586ZM35.8495 31.3116V31.5616H36.0995V31.3116H35.8495ZM34.5885 31.3116V31.0616H34.3385V31.3116H34.5885ZM34.5885 33.5476V33.7976H34.8385V33.5476H34.5885ZM29.5965 30.7136L29.3644 30.8065L29.5315 31.2243L29.798 30.8616L29.5965 30.7136ZM29.4145 30.2586V30.0086H29.0452L29.1824 30.3515L29.4145 30.2586ZM33.3925 30.2586V30.5086H33.6425V30.2586H33.3925ZM33.3925 24.9286L33.459 24.6876L33.1425 24.6003V24.9286H33.3925ZM33.7695 25.0326L33.971 25.1806L34.1858 24.8881L33.836 24.7916L33.7695 25.0326ZM33.6425 33.5476V31.3116H33.1425V33.5476H33.6425ZM33.3925 31.0616H28.6345V31.5616H33.3925V31.0616ZM28.8845 31.3116V30.2586H28.3845V31.3116H28.8845ZM28.8355 30.4073L33.5675 24.0113L33.1655 23.7139L28.4335 30.1099L28.8355 30.4073ZM33.3665 24.1126H34.5885V23.6126H33.3665V24.1126ZM34.3385 23.8626V30.2586H34.8385V23.8626H34.3385ZM34.5885 30.5086H35.8495V30.0086H34.5885V30.5086ZM35.5995 30.2586V31.3116H36.0995V30.2586H35.5995ZM35.8495 31.0616H34.5885V31.5616H35.8495V31.0616ZM34.3385 31.3116V33.5476H34.8385V31.3116H34.3385ZM34.5885 33.2976H33.3925V33.7976H34.5885V33.2976ZM29.8286 30.6208L29.6466 30.1658L29.1824 30.3515L29.3644 30.8065L29.8286 30.6208ZM29.4145 30.5086H33.3925V30.0086H29.4145V30.5086ZM33.6425 30.2586V24.9286H33.1425V30.2586H33.6425ZM33.326 25.1696L33.703 25.2736L33.836 24.7916L33.459 24.6876L33.326 25.1696ZM33.568 24.8846L29.395 30.5656L29.798 30.8616L33.971 25.1806L33.568 24.8846Z" fill="#EB0000" mask="url(#path-6-outside-1_173_279)"/>
<mask id="path-8-outside-2_173_279" maskUnits="userSpaceOnUse" x="40.8176" y="35.2461" width="7" height="11" fill="black">
<rect fill="white" x="40.8176" y="35.2461" width="7" height="11"/>
<path d="M41.8186 45.2461L46.0696 36.6661H41.3246V35.5611H47.4086V36.6661L43.1966 45.2461H41.8186Z"/>
</mask>
<path d="M41.8186 45.2461L46.0696 36.6661H41.3246V35.5611H47.4086V36.6661L43.1966 45.2461H41.8186Z" fill="#EB0000"/>
<path d="M41.8186 45.2461L41.5946 45.1351L41.4157 45.4961H41.8186V45.2461ZM46.0696 36.6661L46.2936 36.7771L46.4725 36.4161H46.0696V36.6661ZM41.3246 36.6661H41.0746V36.9161H41.3246V36.6661ZM41.3246 35.5611V35.3111H41.0746V35.5611H41.3246ZM47.4086 35.5611H47.6586V35.3111H47.4086V35.5611ZM47.4086 36.6661L47.633 36.7763L47.6586 36.7241V36.6661H47.4086ZM43.1966 45.2461V45.4961H43.3524L43.421 45.3563L43.1966 45.2461ZM42.0426 45.3571L46.2936 36.7771L45.8456 36.5551L41.5946 45.1351L42.0426 45.3571ZM46.0696 36.4161H41.3246V36.9161H46.0696V36.4161ZM41.5746 36.6661V35.5611H41.0746V36.6661H41.5746ZM41.3246 35.8111H47.4086V35.3111H41.3246V35.8111ZM47.1586 35.5611V36.6661H47.6586V35.5611H47.1586ZM47.1842 36.5559L42.9722 45.1359L43.421 45.3563L47.633 36.7763L47.1842 36.5559ZM43.1966 44.9961H41.8186V45.4961H43.1966V44.9961Z" fill="#EB0000" mask="url(#path-8-outside-2_173_279)"/>
<line y1="-0.5" x2="28.9539" y2="-0.5" transform="matrix(0.589085 -0.808071 0.8094 0.587258 29.2482 47.3967)" stroke="#EB0000"/>
</svg>
