<svg width="87" height="87" viewBox="0 0 87 87" fill="none" xmlns="http://www.w3.org/2000/svg">
<g clip-path="url(#clip0_175_826)">
<path d="M24.4688 32.625L36.4095 49.3398C36.901 50.0281 37.5438 50.5944 38.2883 50.9953C39.0329 51.3962 39.8598 51.621 40.7048 51.6525C41.5497 51.684 42.3907 51.5213 43.1632 51.1769C43.9357 50.8325 44.6187 50.3156 45.1603 49.666L84.2812 2.71509" stroke="#EB0000" stroke-width="4" stroke-linecap="round" stroke-linejoin="round"/>
<path d="M78.8438 38.0625V73.4062C78.8438 76.2903 77.6979 79.0565 75.6585 81.096C73.619 83.1354 70.8528 84.2812 67.9688 84.2812H13.5938C10.7095 84.2812 7.94343 83.1354 5.90396 81.096C3.8645 79.0565 2.71875 76.2903 2.71875 73.4062V19.0312C2.71875 16.147 3.8645 13.3809 5.90396 11.3415C7.94343 9.302 10.7095 8.15625 13.5938 8.15625H59.8125" stroke="#EB0000" stroke-width="4" stroke-linecap="round" stroke-linejoin="round"/>
</g>
<defs>
<clipPath id="clip0_175_826">
<rect width="87" height="87" fill="white"/>
</clipPath>
</defs>
</svg>
