<svg width="72" height="70" viewBox="0 0 72 70" fill="none" xmlns="http://www.w3.org/2000/svg">
<path d="M21.4019 32.0833L33.2157 5.83325C35.5656 5.83325 37.8192 6.75512 39.4809 8.39607C41.1425 10.037 42.076 12.2626 42.076 14.5833V26.2499H58.7924C59.6487 26.2403 60.4968 26.4147 61.278 26.761C62.0592 27.1072 62.7548 27.6171 63.3167 28.2552C63.8786 28.8933 64.2932 29.6444 64.532 30.4565C64.7707 31.2686 64.8278 32.1222 64.6993 32.9583L60.6236 59.2083C60.41 60.5992 59.6945 61.8671 58.609 62.7783C57.5236 63.6894 56.1412 64.1825 54.7167 64.1666H21.4019M21.4019 32.0833V64.1666M21.4019 32.0833H12.5416C10.975 32.0833 9.4726 32.6978 8.36485 33.7918C7.25709 34.8858 6.63477 36.3695 6.63477 37.9166V58.3333C6.63477 59.8803 7.25709 61.3641 8.36485 62.458C9.4726 63.552 10.975 64.1666 12.5416 64.1666H21.4019" stroke="#EB0000" stroke-width="2" stroke-linecap="round" stroke-linejoin="round"/>
</svg>
