<svg width="65" height="64" viewBox="0 0 65 64" fill="none" xmlns="http://www.w3.org/2000/svg">
<path d="M39.6545 15.0398C39.0492 15.6496 38.7102 16.4695 38.7102 17.3234C38.7102 18.1773 39.0492 18.9972 39.6545 19.607L44.94 24.8267C45.5575 25.4245 46.3877 25.7593 47.2524 25.7593C48.1171 25.7593 48.9473 25.4245 49.5648 24.8267L62.0187 12.5278C63.6798 16.1529 64.1827 20.1917 63.4605 24.1062C62.7383 28.0207 60.8252 31.6249 57.9762 34.4384C55.1272 37.2519 51.4777 39.1412 47.5138 39.8544C43.55 40.5676 39.4602 40.0709 35.7895 38.4305L12.9628 60.9731C11.6486 62.2709 9.86617 63 8.00763 63C6.14909 63 4.36667 62.2709 3.05249 60.9731C1.7383 59.6752 1 57.915 1 56.0796C1 54.2442 1.7383 52.484 3.05249 51.1861L25.8792 28.6436C24.2181 25.0186 23.7152 20.9797 24.4374 17.0652C25.1596 13.1507 27.0727 9.54658 29.9217 6.73306C32.7707 3.91953 36.4202 2.03027 40.3841 1.31704C44.3479 0.603818 48.4377 1.1005 52.1084 2.7409L39.6875 15.0072L39.6545 15.0398Z" stroke="#EB0000" stroke-width="2" stroke-linecap="round" stroke-linejoin="round"/>
</svg>
