<svg width="33" height="33" viewBox="0 0 33 33" fill="none" xmlns="http://www.w3.org/2000/svg">
<path d="M15.125 5.5H5.5C4.77065 5.5 4.07118 5.78973 3.55546 6.30546C3.03973 6.82118 2.75 7.52065 2.75 8.25V27.5C2.75 28.2293 3.03973 28.9288 3.55546 29.4445C4.07118 29.9603 4.77065 30.25 5.5 30.25H24.75C25.4793 30.25 26.1788 29.9603 26.6945 29.4445C27.2103 28.9288 27.5 28.2293 27.5 27.5V17.875" stroke="#EB0000" stroke-width="2" stroke-linecap="round" stroke-linejoin="round"/>
<path d="M25.4375 3.43751C25.9845 2.8905 26.7264 2.58319 27.5 2.58319C28.2736 2.58319 29.0155 2.8905 29.5625 3.43751C30.1095 3.98452 30.4168 4.72642 30.4168 5.50001C30.4168 6.27359 30.1095 7.0155 29.5625 7.56251L16.5 20.625L11 22L12.375 16.5L25.4375 3.43751Z" stroke="#EB0000" stroke-width="2" stroke-linecap="round" stroke-linejoin="round"/>
</svg>
