<svg width="33" height="33" viewBox="0 0 33 33" fill="none" xmlns="http://www.w3.org/2000/svg">
<path d="M9.625 15.125L15.125 2.75C16.219 2.75 17.2682 3.1846 18.0418 3.95818C18.8154 4.73177 19.25 5.78098 19.25 6.875V12.375H27.0325C27.4311 12.3705 27.826 12.4527 28.1897 12.6159C28.5534 12.7792 28.8772 13.0195 29.1388 13.3203C29.4004 13.6212 29.5934 13.9753 29.7046 14.3581C29.8157 14.7409 29.8423 15.1434 29.7825 15.5375L27.885 27.9125C27.7856 28.5682 27.4525 29.166 26.9471 29.5955C26.4418 30.0251 25.7982 30.2575 25.135 30.25H9.625M9.625 15.125V30.25M9.625 15.125H5.5C4.77065 15.125 4.07118 15.4147 3.55546 15.9305C3.03973 16.4462 2.75 17.1457 2.75 17.875V27.5C2.75 28.2293 3.03973 28.9288 3.55546 29.4445C4.07118 29.9603 4.77065 30.25 5.5 30.25H9.625" stroke="#EB0000" stroke-width="2" stroke-linecap="round" stroke-linejoin="round"/>
</svg>
