<svg width="300" height="158" viewBox="0 0 300 158" fill="none" xmlns="http://www.w3.org/2000/svg">
<rect y="27" width="300" height="131" rx="6" fill="white"/>
<path d="M95.3287 87V75.3636H102.624V76.875H97.0843V80.4205H102.243V81.9261H97.0843V85.4886H102.692V87H95.3287ZM111.197 80.4034L109.657 80.6761C109.593 80.4792 109.49 80.2917 109.35 80.1136C109.214 79.9356 109.028 79.7898 108.793 79.6761C108.558 79.5625 108.265 79.5057 107.913 79.5057C107.432 79.5057 107.03 79.6136 106.708 79.8295C106.386 80.0417 106.225 80.3163 106.225 80.6534C106.225 80.9451 106.333 81.1799 106.549 81.358C106.765 81.536 107.113 81.6818 107.594 81.7955L108.981 82.1136C109.784 82.2992 110.382 82.5852 110.776 82.9716C111.17 83.358 111.367 83.8598 111.367 84.4773C111.367 85 111.216 85.4659 110.913 85.875C110.613 86.2803 110.195 86.5985 109.657 86.8295C109.123 87.0606 108.504 87.1761 107.799 87.1761C106.822 87.1761 106.024 86.9678 105.407 86.5511C104.789 86.1307 104.411 85.5341 104.271 84.7614L105.913 84.5114C106.015 84.9394 106.225 85.2633 106.543 85.483C106.861 85.6989 107.276 85.8068 107.788 85.8068C108.344 85.8068 108.789 85.6913 109.123 85.4602C109.456 85.2254 109.623 84.9394 109.623 84.6023C109.623 84.3295 109.521 84.1004 109.316 83.9148C109.115 83.7292 108.807 83.589 108.39 83.4943L106.913 83.1705C106.098 82.9848 105.496 82.6894 105.106 82.2841C104.719 81.8788 104.526 81.3655 104.526 80.7443C104.526 80.2292 104.67 79.7784 104.958 79.392C105.246 79.0057 105.644 78.7045 106.151 78.4886C106.659 78.2689 107.24 78.1591 107.896 78.1591C108.839 78.1591 109.581 78.3636 110.123 78.7727C110.664 79.178 111.022 79.7216 111.197 80.4034ZM114.622 84.0398L114.61 81.9659H114.906L118.383 78.2727H120.417L116.451 82.4773H116.184L114.622 84.0398ZM113.059 87V75.3636H114.758V87H113.059ZM118.57 87L115.445 82.8523L116.616 81.6648L120.656 87H118.57ZM121.789 87V78.2727H123.488V87H121.789ZM122.647 76.9261C122.352 76.9261 122.098 76.8277 121.886 76.6307C121.678 76.4299 121.573 76.1913 121.573 75.9148C121.573 75.6345 121.678 75.3958 121.886 75.1989C122.098 74.9981 122.352 74.8977 122.647 74.8977C122.943 74.8977 123.195 74.9981 123.403 75.1989C123.615 75.3958 123.721 75.6345 123.721 75.9148C123.721 76.1913 123.615 76.4299 123.403 76.6307C123.195 76.8277 122.943 76.9261 122.647 76.9261ZM127.297 75.3636V87H125.598V75.3636H127.297ZM132.673 87.1705C131.969 87.1705 131.34 86.9905 130.787 86.6307C130.237 86.267 129.806 85.75 129.491 85.0795C129.181 84.4053 129.025 83.5966 129.025 82.6534C129.025 81.7102 129.183 80.9034 129.497 80.233C129.815 79.5625 130.251 79.0492 130.804 78.6932C131.357 78.3371 131.984 78.1591 132.684 78.1591C133.226 78.1591 133.662 78.25 133.991 78.4318C134.325 78.6098 134.582 78.8182 134.764 79.0568C134.95 79.2955 135.094 79.5057 135.196 79.6875H135.298V75.3636H136.997V87H135.338V85.642H135.196C135.094 85.8277 134.946 86.0398 134.753 86.2784C134.563 86.517 134.302 86.7254 133.969 86.9034C133.635 87.0814 133.203 87.1705 132.673 87.1705ZM133.048 85.7216C133.537 85.7216 133.95 85.5928 134.287 85.3352C134.628 85.0739 134.885 84.7121 135.059 84.25C135.237 83.7879 135.326 83.25 135.326 82.6364C135.326 82.0303 135.239 81.5 135.065 81.0455C134.891 80.5909 134.635 80.2367 134.298 79.983C133.961 79.7292 133.544 79.6023 133.048 79.6023C132.537 79.6023 132.111 79.7348 131.77 80C131.429 80.2652 131.171 80.6269 130.997 81.0852C130.826 81.5436 130.741 82.0606 130.741 82.6364C130.741 83.2197 130.828 83.7443 131.003 84.2102C131.177 84.6761 131.434 85.0455 131.775 85.3182C132.12 85.5871 132.544 85.7216 133.048 85.7216ZM145.785 80.4034L144.246 80.6761C144.181 80.4792 144.079 80.2917 143.939 80.1136C143.802 79.9356 143.617 79.7898 143.382 79.6761C143.147 79.5625 142.854 79.5057 142.501 79.5057C142.02 79.5057 141.619 79.6136 141.297 79.8295C140.975 80.0417 140.814 80.3163 140.814 80.6534C140.814 80.9451 140.922 81.1799 141.138 81.358C141.354 81.536 141.702 81.6818 142.183 81.7955L143.57 82.1136C144.373 82.2992 144.971 82.5852 145.365 82.9716C145.759 83.358 145.956 83.8598 145.956 84.4773C145.956 85 145.804 85.4659 145.501 85.875C145.202 86.2803 144.784 86.5985 144.246 86.8295C143.712 87.0606 143.092 87.1761 142.388 87.1761C141.41 87.1761 140.613 86.9678 139.996 86.5511C139.378 86.1307 138.999 85.5341 138.859 84.7614L140.501 84.5114C140.604 84.9394 140.814 85.2633 141.132 85.483C141.45 85.6989 141.865 85.8068 142.376 85.8068C142.933 85.8068 143.378 85.6913 143.712 85.4602C144.045 85.2254 144.212 84.9394 144.212 84.6023C144.212 84.3295 144.109 84.1004 143.905 83.9148C143.704 83.7292 143.395 83.589 142.979 83.4943L141.501 83.1705C140.687 82.9848 140.085 82.6894 139.695 82.2841C139.308 81.8788 139.115 81.3655 139.115 80.7443C139.115 80.2292 139.259 79.7784 139.547 79.392C139.835 79.0057 140.232 78.7045 140.74 78.4886C141.248 78.2689 141.829 78.1591 142.484 78.1591C143.427 78.1591 144.17 78.3636 144.712 78.7727C145.253 79.178 145.611 79.7216 145.785 80.4034ZM151.307 90.4545C150.614 90.4545 150.017 90.3636 149.517 90.1818C149.021 90 148.616 89.7595 148.301 89.4602C147.987 89.161 147.752 88.8333 147.597 88.4773L149.057 87.875C149.159 88.0417 149.296 88.2178 149.466 88.4034C149.64 88.5928 149.875 88.7538 150.171 88.8864C150.47 89.0189 150.854 89.0852 151.324 89.0852C151.968 89.0852 152.5 88.928 152.921 88.6136C153.341 88.303 153.551 87.8068 153.551 87.125V85.4091H153.443C153.341 85.5947 153.193 85.8011 153 86.0284C152.811 86.2557 152.549 86.4527 152.216 86.6193C151.883 86.786 151.449 86.8693 150.915 86.8693C150.225 86.8693 149.604 86.7083 149.051 86.3864C148.502 86.0606 148.066 85.5814 147.744 84.9489C147.426 84.3125 147.267 83.5303 147.267 82.6023C147.267 81.6742 147.424 80.8788 147.739 80.2159C148.057 79.553 148.492 79.0455 149.046 78.6932C149.599 78.3371 150.225 78.1591 150.926 78.1591C151.468 78.1591 151.905 78.25 152.239 78.4318C152.572 78.6098 152.832 78.8182 153.017 79.0568C153.207 79.2955 153.352 79.5057 153.455 79.6875H153.58V78.2727H155.244V87.1932C155.244 87.9432 155.07 88.5587 154.722 89.0398C154.373 89.5208 153.902 89.8769 153.307 90.108C152.716 90.339 152.049 90.4545 151.307 90.4545ZM151.29 85.4602C151.778 85.4602 152.191 85.3466 152.528 85.1193C152.869 84.8883 153.127 84.5587 153.301 84.1307C153.479 83.6989 153.568 83.1818 153.568 82.5795C153.568 81.9924 153.481 81.4754 153.307 81.0284C153.133 80.5814 152.877 80.233 152.54 79.983C152.203 79.7292 151.786 79.6023 151.29 79.6023C150.778 79.6023 150.352 79.7348 150.011 80C149.671 80.2614 149.413 80.6174 149.239 81.0682C149.068 81.5189 148.983 82.0227 148.983 82.5795C148.983 83.1515 149.07 83.6534 149.244 84.0852C149.419 84.517 149.676 84.8542 150.017 85.0966C150.362 85.339 150.786 85.4602 151.29 85.4602ZM159.887 87.1932C159.334 87.1932 158.834 87.0909 158.387 86.8864C157.94 86.678 157.585 86.3769 157.324 85.983C157.066 85.589 156.938 85.1061 156.938 84.5341C156.938 84.0417 157.032 83.6364 157.222 83.3182C157.411 83 157.667 82.7481 157.989 82.5625C158.311 82.3769 158.671 82.2367 159.068 82.142C159.466 82.0473 159.871 81.9754 160.284 81.9261C160.807 81.8655 161.231 81.8163 161.557 81.7784C161.883 81.7367 162.12 81.6705 162.267 81.5795C162.415 81.4886 162.489 81.3409 162.489 81.1364V81.0966C162.489 80.6004 162.349 80.2159 162.068 79.9432C161.792 79.6705 161.379 79.5341 160.83 79.5341C160.258 79.5341 159.807 79.661 159.477 79.9148C159.152 80.1648 158.926 80.4432 158.801 80.75L157.205 80.3864C157.394 79.8561 157.671 79.428 158.034 79.1023C158.402 78.7727 158.824 78.5341 159.301 78.3864C159.779 78.2348 160.281 78.1591 160.807 78.1591C161.156 78.1591 161.525 78.2008 161.915 78.2841C162.309 78.3636 162.676 78.5114 163.017 78.7273C163.362 78.9432 163.644 79.2519 163.864 79.6534C164.084 80.0511 164.193 80.5682 164.193 81.2045V87H162.534V85.8068H162.466C162.356 86.0265 162.191 86.2424 161.972 86.4545C161.752 86.6667 161.47 86.8428 161.125 86.983C160.78 87.1231 160.368 87.1932 159.887 87.1932ZM160.256 85.8295C160.726 85.8295 161.127 85.7367 161.46 85.5511C161.798 85.3655 162.053 85.1231 162.227 84.8239C162.406 84.5208 162.495 84.197 162.495 83.8523V82.7273C162.434 82.7879 162.316 82.8447 162.142 82.8977C161.972 82.947 161.777 82.9905 161.557 83.0284C161.337 83.0625 161.123 83.0947 160.915 83.125C160.707 83.1515 160.532 83.1742 160.392 83.1932C160.063 83.2348 159.762 83.3049 159.489 83.4034C159.22 83.5019 159.004 83.6439 158.841 83.8295C158.682 84.0114 158.602 84.2538 158.602 84.5568C158.602 84.9773 158.758 85.2955 159.068 85.5114C159.379 85.7235 159.775 85.8295 160.256 85.8295ZM169.547 87.1705C168.843 87.1705 168.214 86.9905 167.661 86.6307C167.112 86.267 166.68 85.75 166.365 85.0795C166.055 84.4053 165.899 83.5966 165.899 82.6534C165.899 81.7102 166.057 80.9034 166.371 80.233C166.689 79.5625 167.125 79.0492 167.678 78.6932C168.231 78.3371 168.858 78.1591 169.559 78.1591C170.1 78.1591 170.536 78.25 170.865 78.4318C171.199 78.6098 171.456 78.8182 171.638 79.0568C171.824 79.2955 171.968 79.5057 172.07 79.6875H172.172V75.3636H173.871V87H172.212V85.642H172.07C171.968 85.8277 171.82 86.0398 171.627 86.2784C171.437 86.517 171.176 86.7254 170.843 86.9034C170.509 87.0814 170.078 87.1705 169.547 87.1705ZM169.922 85.7216C170.411 85.7216 170.824 85.5928 171.161 85.3352C171.502 85.0739 171.759 84.7121 171.934 84.25C172.112 83.7879 172.201 83.25 172.201 82.6364C172.201 82.0303 172.114 81.5 171.939 81.0455C171.765 80.5909 171.509 80.2367 171.172 79.983C170.835 79.7292 170.418 79.6023 169.922 79.6023C169.411 79.6023 168.985 79.7348 168.644 80C168.303 80.2652 168.045 80.6269 167.871 81.0852C167.701 81.5436 167.615 82.0606 167.615 82.6364C167.615 83.2197 167.703 83.7443 167.877 84.2102C168.051 84.6761 168.309 85.0455 168.649 85.3182C168.994 85.5871 169.418 85.7216 169.922 85.7216ZM179.881 87.1761C179.021 87.1761 178.281 86.9924 177.66 86.625C177.042 86.2538 176.565 85.733 176.228 85.0625C175.894 84.3883 175.728 83.5985 175.728 82.6932C175.728 81.7992 175.894 81.0114 176.228 80.3295C176.565 79.6477 177.035 79.1155 177.637 78.733C178.243 78.3504 178.951 78.1591 179.762 78.1591C180.254 78.1591 180.732 78.2405 181.194 78.4034C181.656 78.5663 182.071 78.822 182.438 79.1705C182.805 79.5189 183.095 79.9716 183.307 80.5284C183.519 81.0814 183.625 81.7538 183.625 82.5455V83.1477H176.688V81.875H181.961C181.961 81.428 181.87 81.0322 181.688 80.6875C181.506 80.339 181.25 80.0644 180.921 79.8636C180.595 79.6629 180.213 79.5625 179.773 79.5625C179.296 79.5625 178.879 79.6799 178.523 79.9148C178.171 80.1458 177.898 80.4489 177.705 80.8239C177.516 81.1951 177.421 81.5985 177.421 82.0341V83.0284C177.421 83.6117 177.523 84.108 177.728 84.517C177.936 84.9261 178.226 85.2386 178.597 85.4545C178.968 85.6667 179.402 85.7727 179.898 85.7727C180.22 85.7727 180.514 85.7273 180.779 85.6364C181.044 85.5417 181.273 85.4015 181.466 85.2159C181.66 85.0303 181.807 84.8011 181.91 84.5284L183.518 84.8182C183.389 85.2917 183.158 85.7064 182.824 86.0625C182.495 86.4148 182.08 86.6894 181.58 86.8864C181.084 87.0795 180.518 87.1761 179.881 87.1761ZM193.421 87.1591C192.641 87.1591 191.944 87.0246 191.33 86.7557C190.72 86.4867 190.237 86.1136 189.881 85.6364C189.529 85.1553 189.34 84.5985 189.313 83.9659H191.097C191.12 84.3106 191.236 84.6098 191.444 84.8636C191.656 85.1136 191.933 85.3068 192.273 85.4432C192.614 85.5795 192.993 85.6477 193.41 85.6477C193.868 85.6477 194.273 85.5682 194.626 85.4091C194.982 85.25 195.26 85.0284 195.461 84.7443C195.662 84.4564 195.762 84.125 195.762 83.75C195.762 83.3598 195.662 83.017 195.461 82.7216C195.264 82.4223 194.974 82.1875 194.592 82.017C194.213 81.8466 193.755 81.7614 193.217 81.7614H192.234V80.3295H193.217C193.648 80.3295 194.027 80.2519 194.353 80.0966C194.683 79.9413 194.94 79.7254 195.126 79.4489C195.311 79.1686 195.404 78.8409 195.404 78.4659C195.404 78.1061 195.323 77.7936 195.16 77.5284C195.001 77.2595 194.773 77.0492 194.478 76.8977C194.186 76.7462 193.842 76.6705 193.444 76.6705C193.065 76.6705 192.711 76.7405 192.381 76.8807C192.056 77.017 191.791 77.214 191.586 77.4716C191.381 77.7254 191.272 78.0303 191.256 78.3864H189.558C189.577 77.7576 189.762 77.2045 190.114 76.7273C190.47 76.25 190.94 75.8769 191.523 75.608C192.107 75.339 192.755 75.2045 193.467 75.2045C194.213 75.2045 194.857 75.3504 195.398 75.642C195.944 75.9299 196.364 76.3144 196.66 76.7955C196.959 77.2765 197.107 77.803 197.103 78.375C197.107 79.0265 196.925 79.5795 196.558 80.0341C196.194 80.4886 195.709 80.7936 195.103 80.9489V81.0398C195.876 81.1572 196.474 81.464 196.898 81.9602C197.327 82.4564 197.539 83.072 197.535 83.8068C197.539 84.447 197.361 85.0208 197.001 85.5284C196.645 86.036 196.158 86.4356 195.541 86.7273C194.923 87.0152 194.217 87.1591 193.421 87.1591ZM203.921 75.3636V87H202.16V77.125H202.092L199.308 78.9432V77.2614L202.211 75.3636H203.921ZM55.5737 99.3636V111H53.8124V101.125H53.7442L50.9601 102.943V101.261L53.8635 99.3636H55.5737ZM62.6079 111.159C62.089 111.152 61.5776 111.057 61.0739 110.875C60.5739 110.693 60.1193 110.39 59.7102 109.966C59.3011 109.542 58.9735 108.972 58.7273 108.256C58.4848 107.54 58.3636 106.646 58.3636 105.574C58.3636 104.559 58.464 103.657 58.6648 102.869C58.8693 102.081 59.1629 101.417 59.5454 100.875C59.928 100.33 60.3901 99.9148 60.9318 99.6307C61.4735 99.3466 62.0814 99.2045 62.7557 99.2045C63.4489 99.2045 64.0644 99.3409 64.6023 99.6136C65.1401 99.8864 65.5758 100.263 65.9091 100.744C66.2462 101.225 66.4602 101.773 66.5511 102.386H64.8182C64.7007 101.902 64.4678 101.506 64.1193 101.199C63.7708 100.892 63.3163 100.739 62.7557 100.739C61.9034 100.739 61.2386 101.11 60.7614 101.852C60.2879 102.595 60.0492 103.627 60.0454 104.949H60.1307C60.3314 104.619 60.5776 104.339 60.8693 104.108C61.1648 103.873 61.4943 103.693 61.8579 103.568C62.2254 103.439 62.6117 103.375 63.017 103.375C63.6913 103.375 64.3011 103.54 64.8466 103.869C65.3958 104.195 65.8333 104.646 66.1591 105.222C66.4848 105.797 66.6477 106.456 66.6477 107.199C66.6477 107.941 66.4792 108.614 66.142 109.216C65.8087 109.818 65.339 110.295 64.7329 110.648C64.1269 110.996 63.4186 111.167 62.6079 111.159ZM62.6023 109.682C63.0492 109.682 63.4489 109.572 63.8011 109.352C64.1534 109.133 64.4318 108.837 64.6364 108.466C64.8409 108.095 64.9432 107.68 64.9432 107.222C64.9432 106.775 64.8428 106.367 64.642 106C64.4451 105.633 64.1723 105.341 63.8239 105.125C63.4792 104.909 63.0852 104.801 62.642 104.801C62.3049 104.801 61.9924 104.866 61.7045 104.994C61.4204 105.123 61.1704 105.301 60.9545 105.528C60.7386 105.756 60.5682 106.017 60.4432 106.312C60.322 106.604 60.2614 106.913 60.2614 107.239C60.2614 107.674 60.3617 108.078 60.5625 108.449C60.767 108.82 61.0454 109.119 61.3977 109.347C61.7538 109.57 62.1553 109.682 62.6023 109.682ZM72.3822 111.159C71.6701 111.159 71.03 111.023 70.4618 110.75C69.8974 110.473 69.4466 110.095 69.1095 109.614C68.7724 109.133 68.5925 108.583 68.5697 107.966H70.2743C70.3159 108.466 70.5375 108.877 70.9391 109.199C71.3406 109.521 71.8216 109.682 72.3822 109.682C72.8292 109.682 73.225 109.58 73.5697 109.375C73.9182 109.167 74.1909 108.881 74.3879 108.517C74.5887 108.153 74.6891 107.739 74.6891 107.273C74.6891 106.799 74.5868 106.377 74.3822 106.006C74.1777 105.634 73.8955 105.343 73.5356 105.131C73.1796 104.919 72.7705 104.811 72.3084 104.807C71.9561 104.807 71.6019 104.867 71.2459 104.989C70.8898 105.11 70.6019 105.269 70.3822 105.466L68.7743 105.227L69.4277 99.3636H75.8254V100.869H70.8879L70.5186 104.125H70.5868C70.8141 103.905 71.1152 103.722 71.4902 103.574C71.869 103.426 72.2743 103.352 72.7061 103.352C73.4144 103.352 74.0451 103.521 74.5981 103.858C75.155 104.195 75.5925 104.655 75.9106 105.239C76.2326 105.818 76.3917 106.485 76.3879 107.239C76.3917 107.992 76.2212 108.665 75.8766 109.256C75.5356 109.847 75.0622 110.312 74.4561 110.653C73.8538 110.991 73.1625 111.159 72.3822 111.159ZM78.6792 111L83.7588 100.955V100.869H77.8838V99.3636H85.577V100.92L80.5145 111H78.6792ZM91.5943 111V99.3636H93.35V104.92H93.492L98.3727 99.3636H100.583L95.8897 104.602L100.6 111H98.4863L94.725 105.801L93.35 107.381V111H91.5943ZM102.34 111.506L101.391 110.858L107.545 101.835L108.494 102.483L102.34 111.506ZM104.942 111.182C104.124 111.182 103.41 110.994 102.8 110.619C102.191 110.244 101.717 109.72 101.38 109.045C101.043 108.371 100.874 107.583 100.874 106.682C100.874 105.777 101.043 104.985 101.38 104.307C101.717 103.629 102.191 103.102 102.8 102.727C103.41 102.352 104.124 102.165 104.942 102.165C105.761 102.165 106.475 102.352 107.084 102.727C107.694 103.102 108.168 103.629 108.505 104.307C108.842 104.985 109.011 105.777 109.011 106.682C109.011 107.583 108.842 108.371 108.505 109.045C108.168 109.72 107.694 110.244 107.084 110.619C106.475 110.994 105.761 111.182 104.942 111.182ZM104.948 109.756C105.478 109.756 105.918 109.616 106.266 109.335C106.615 109.051 106.872 108.676 107.039 108.21C107.209 107.744 107.295 107.233 107.295 106.676C107.295 106.119 107.209 105.606 107.039 105.136C106.872 104.667 106.615 104.29 106.266 104.006C105.918 103.722 105.478 103.58 104.948 103.58C104.414 103.58 103.971 103.722 103.619 104.006C103.27 104.29 103.011 104.667 102.84 105.136C102.673 105.606 102.59 106.119 102.59 106.676C102.59 107.233 102.673 107.744 102.84 108.21C103.011 108.676 103.27 109.051 103.619 109.335C103.971 109.616 104.414 109.756 104.948 109.756ZM110.867 111V99.3636H112.566V103.688H112.668C112.767 103.506 112.909 103.295 113.095 103.057C113.28 102.818 113.538 102.61 113.867 102.432C114.197 102.25 114.632 102.159 115.174 102.159C115.879 102.159 116.507 102.337 117.06 102.693C117.614 103.049 118.047 103.562 118.362 104.233C118.68 104.903 118.839 105.71 118.839 106.653C118.839 107.597 118.682 108.405 118.367 109.08C118.053 109.75 117.621 110.267 117.072 110.631C116.523 110.991 115.896 111.17 115.191 111.17C114.661 111.17 114.227 111.081 113.89 110.903C113.557 110.725 113.295 110.517 113.106 110.278C112.917 110.04 112.771 109.828 112.668 109.642H112.526V111H110.867ZM112.532 106.636C112.532 107.25 112.621 107.788 112.799 108.25C112.977 108.712 113.235 109.074 113.572 109.335C113.909 109.593 114.322 109.722 114.81 109.722C115.318 109.722 115.742 109.587 116.083 109.318C116.424 109.045 116.682 108.676 116.856 108.21C117.034 107.744 117.123 107.22 117.123 106.636C117.123 106.061 117.036 105.544 116.862 105.085C116.691 104.627 116.434 104.265 116.089 104C115.748 103.735 115.322 103.602 114.81 103.602C114.318 103.602 113.901 103.729 113.56 103.983C113.223 104.237 112.968 104.591 112.793 105.045C112.619 105.5 112.532 106.03 112.532 106.636ZM124.332 111.176C123.472 111.176 122.732 110.992 122.11 110.625C121.493 110.254 121.016 109.733 120.679 109.062C120.345 108.388 120.179 107.598 120.179 106.693C120.179 105.799 120.345 105.011 120.679 104.33C121.016 103.648 121.485 103.116 122.088 102.733C122.694 102.35 123.402 102.159 124.213 102.159C124.705 102.159 125.182 102.241 125.644 102.403C126.107 102.566 126.521 102.822 126.889 103.17C127.256 103.519 127.546 103.972 127.758 104.528C127.97 105.081 128.076 105.754 128.076 106.545V107.148H121.139V105.875H126.411C126.411 105.428 126.321 105.032 126.139 104.688C125.957 104.339 125.701 104.064 125.372 103.864C125.046 103.663 124.663 103.562 124.224 103.562C123.747 103.562 123.33 103.68 122.974 103.915C122.622 104.146 122.349 104.449 122.156 104.824C121.966 105.195 121.872 105.598 121.872 106.034V107.028C121.872 107.612 121.974 108.108 122.179 108.517C122.387 108.926 122.677 109.239 123.048 109.455C123.419 109.667 123.853 109.773 124.349 109.773C124.671 109.773 124.964 109.727 125.23 109.636C125.495 109.542 125.724 109.402 125.917 109.216C126.11 109.03 126.258 108.801 126.36 108.528L127.968 108.818C127.839 109.292 127.608 109.706 127.275 110.062C126.946 110.415 126.531 110.689 126.031 110.886C125.535 111.08 124.968 111.176 124.332 111.176ZM131.484 105.818V111H129.785V102.273H131.416V103.693H131.524C131.725 103.231 132.039 102.86 132.467 102.58C132.899 102.299 133.442 102.159 134.098 102.159C134.692 102.159 135.213 102.284 135.66 102.534C136.107 102.78 136.454 103.148 136.7 103.636C136.946 104.125 137.069 104.729 137.069 105.449V111H135.37V105.653C135.37 105.021 135.206 104.527 134.876 104.17C134.547 103.811 134.094 103.631 133.518 103.631C133.124 103.631 132.774 103.716 132.467 103.886C132.164 104.057 131.923 104.307 131.745 104.636C131.571 104.962 131.484 105.356 131.484 105.818ZM140.871 105.818V111H139.172V99.3636H140.848V103.693H140.956C141.16 103.223 141.473 102.85 141.893 102.574C142.314 102.297 142.863 102.159 143.541 102.159C144.139 102.159 144.662 102.282 145.109 102.528C145.56 102.775 145.908 103.142 146.155 103.631C146.405 104.116 146.53 104.722 146.53 105.449V111H144.831V105.653C144.831 105.013 144.666 104.517 144.336 104.165C144.007 103.809 143.549 103.631 142.961 103.631C142.56 103.631 142.2 103.716 141.882 103.886C141.568 104.057 141.319 104.307 141.138 104.636C140.96 104.962 140.871 105.356 140.871 105.818ZM151.16 111.193C150.607 111.193 150.107 111.091 149.66 110.886C149.213 110.678 148.859 110.377 148.598 109.983C148.34 109.589 148.212 109.106 148.212 108.534C148.212 108.042 148.306 107.636 148.496 107.318C148.685 107 148.941 106.748 149.263 106.562C149.585 106.377 149.945 106.237 150.342 106.142C150.74 106.047 151.145 105.975 151.558 105.926C152.081 105.866 152.505 105.816 152.831 105.778C153.157 105.737 153.393 105.67 153.541 105.58C153.689 105.489 153.763 105.341 153.763 105.136V105.097C153.763 104.6 153.623 104.216 153.342 103.943C153.066 103.67 152.653 103.534 152.104 103.534C151.532 103.534 151.081 103.661 150.751 103.915C150.426 104.165 150.2 104.443 150.075 104.75L148.479 104.386C148.668 103.856 148.945 103.428 149.308 103.102C149.676 102.773 150.098 102.534 150.575 102.386C151.053 102.235 151.554 102.159 152.081 102.159C152.429 102.159 152.799 102.201 153.189 102.284C153.583 102.364 153.95 102.511 154.291 102.727C154.636 102.943 154.918 103.252 155.138 103.653C155.357 104.051 155.467 104.568 155.467 105.205V111H153.808V109.807H153.74C153.63 110.027 153.465 110.242 153.246 110.455C153.026 110.667 152.744 110.843 152.399 110.983C152.054 111.123 151.642 111.193 151.16 111.193ZM151.53 109.83C151.999 109.83 152.401 109.737 152.734 109.551C153.071 109.366 153.327 109.123 153.501 108.824C153.679 108.521 153.768 108.197 153.768 107.852V106.727C153.708 106.788 153.59 106.845 153.416 106.898C153.246 106.947 153.051 106.991 152.831 107.028C152.611 107.062 152.397 107.095 152.189 107.125C151.981 107.152 151.806 107.174 151.666 107.193C151.337 107.235 151.035 107.305 150.763 107.403C150.494 107.502 150.278 107.644 150.115 107.83C149.956 108.011 149.876 108.254 149.876 108.557C149.876 108.977 150.032 109.295 150.342 109.511C150.653 109.723 151.049 109.83 151.53 109.83ZM164.707 102.273L161.543 111H159.725L156.554 102.273H158.378L160.588 108.989H160.679L162.884 102.273H164.707ZM167.827 105.818V111H166.128V102.273H167.759V103.693H167.867C168.067 103.231 168.382 102.86 168.81 102.58C169.242 102.299 169.785 102.159 170.441 102.159C171.035 102.159 171.556 102.284 172.003 102.534C172.45 102.78 172.797 103.148 173.043 103.636C173.289 104.125 173.412 104.729 173.412 105.449V111H171.713V105.653C171.713 105.021 171.548 104.527 171.219 104.17C170.889 103.811 170.437 103.631 169.861 103.631C169.467 103.631 169.117 103.716 168.81 103.886C168.507 104.057 168.266 104.307 168.088 104.636C167.914 104.962 167.827 105.356 167.827 105.818ZM177.725 109.409L177.64 110.028C177.583 110.483 177.486 110.956 177.35 111.449C177.217 111.945 177.079 112.405 176.935 112.83C176.795 113.254 176.679 113.591 176.588 113.841H175.384C175.433 113.606 175.501 113.288 175.588 112.886C175.676 112.489 175.761 112.044 175.844 111.551C175.927 111.059 175.99 110.557 176.032 110.045L176.088 109.409H177.725ZM187.722 111H183.955V99.3636H187.842C188.982 99.3636 189.961 99.5966 190.779 100.062C191.597 100.525 192.224 101.189 192.66 102.057C193.099 102.92 193.319 103.956 193.319 105.165C193.319 106.377 193.097 107.419 192.654 108.29C192.215 109.161 191.578 109.831 190.745 110.301C189.912 110.767 188.904 111 187.722 111ZM185.711 109.466H187.626C188.512 109.466 189.249 109.299 189.836 108.966C190.423 108.629 190.862 108.142 191.154 107.506C191.446 106.866 191.592 106.085 191.592 105.165C191.592 104.252 191.446 103.477 191.154 102.841C190.866 102.205 190.436 101.722 189.864 101.392C189.292 101.062 188.582 100.898 187.734 100.898H185.711V109.466ZM197.729 111.193C197.176 111.193 196.676 111.091 196.229 110.886C195.782 110.678 195.428 110.377 195.167 109.983C194.909 109.589 194.781 109.106 194.781 108.534C194.781 108.042 194.875 107.636 195.065 107.318C195.254 107 195.51 106.748 195.832 106.562C196.154 106.377 196.514 106.237 196.911 106.142C197.309 106.047 197.714 105.975 198.127 105.926C198.65 105.866 199.074 105.816 199.4 105.778C199.726 105.737 199.962 105.67 200.11 105.58C200.258 105.489 200.332 105.341 200.332 105.136V105.097C200.332 104.6 200.192 104.216 199.911 103.943C199.635 103.67 199.222 103.534 198.673 103.534C198.101 103.534 197.65 103.661 197.32 103.915C196.995 104.165 196.769 104.443 196.644 104.75L195.048 104.386C195.237 103.856 195.514 103.428 195.877 103.102C196.245 102.773 196.667 102.534 197.144 102.386C197.621 102.235 198.123 102.159 198.65 102.159C198.998 102.159 199.368 102.201 199.758 102.284C200.152 102.364 200.519 102.511 200.86 102.727C201.205 102.943 201.487 103.252 201.707 103.653C201.926 104.051 202.036 104.568 202.036 105.205V111H200.377V109.807H200.309C200.199 110.027 200.034 110.242 199.815 110.455C199.595 110.667 199.313 110.843 198.968 110.983C198.623 111.123 198.211 111.193 197.729 111.193ZM198.099 109.83C198.568 109.83 198.97 109.737 199.303 109.551C199.64 109.366 199.896 109.123 200.07 108.824C200.248 108.521 200.337 108.197 200.337 107.852V106.727C200.277 106.788 200.159 106.845 199.985 106.898C199.815 106.947 199.62 106.991 199.4 107.028C199.18 107.062 198.966 107.095 198.758 107.125C198.55 107.152 198.375 107.174 198.235 107.193C197.906 107.235 197.604 107.305 197.332 107.403C197.063 107.502 196.847 107.644 196.684 107.83C196.525 108.011 196.445 108.254 196.445 108.557C196.445 108.977 196.601 109.295 196.911 109.511C197.222 109.723 197.618 109.83 198.099 109.83ZM205.822 105.818V111H204.123V102.273H205.754V103.693H205.862C206.062 103.231 206.377 102.86 206.805 102.58C207.237 102.299 207.78 102.159 208.436 102.159C209.03 102.159 209.551 102.284 209.998 102.534C210.445 102.78 210.792 103.148 211.038 103.636C211.284 104.125 211.407 104.729 211.407 105.449V111H209.708V105.653C209.708 105.021 209.544 104.527 209.214 104.17C208.884 103.811 208.432 103.631 207.856 103.631C207.462 103.631 207.112 103.716 206.805 103.886C206.502 104.057 206.261 104.307 206.083 104.636C205.909 104.962 205.822 105.356 205.822 105.818ZM213.51 111V102.273H215.14V103.693H215.248C215.43 103.212 215.727 102.837 216.14 102.568C216.553 102.295 217.047 102.159 217.623 102.159C218.207 102.159 218.695 102.295 219.089 102.568C219.487 102.841 219.78 103.216 219.97 103.693H220.061C220.269 103.227 220.6 102.856 221.055 102.58C221.51 102.299 222.051 102.159 222.68 102.159C223.472 102.159 224.118 102.407 224.618 102.903C225.121 103.4 225.373 104.148 225.373 105.148V111H223.674V105.307C223.674 104.716 223.513 104.288 223.191 104.023C222.869 103.758 222.485 103.625 222.038 103.625C221.485 103.625 221.055 103.795 220.748 104.136C220.441 104.473 220.288 104.907 220.288 105.438V111H218.595V105.199C218.595 104.725 218.447 104.345 218.152 104.057C217.856 103.769 217.472 103.625 216.998 103.625C216.676 103.625 216.379 103.71 216.106 103.881C215.837 104.047 215.619 104.28 215.453 104.58C215.29 104.879 215.208 105.225 215.208 105.619V111H213.51ZM230.014 111.193C229.461 111.193 228.961 111.091 228.514 110.886C228.067 110.678 227.713 110.377 227.451 109.983C227.194 109.589 227.065 109.106 227.065 108.534C227.065 108.042 227.16 107.636 227.349 107.318C227.539 107 227.794 106.748 228.116 106.562C228.438 106.377 228.798 106.237 229.196 106.142C229.593 106.047 229.999 105.975 230.412 105.926C230.934 105.866 231.359 105.816 231.684 105.778C232.01 105.737 232.247 105.67 232.395 105.58C232.542 105.489 232.616 105.341 232.616 105.136V105.097C232.616 104.6 232.476 104.216 232.196 103.943C231.919 103.67 231.506 103.534 230.957 103.534C230.385 103.534 229.934 103.661 229.605 103.915C229.279 104.165 229.054 104.443 228.929 104.75L227.332 104.386C227.522 103.856 227.798 103.428 228.162 103.102C228.529 102.773 228.951 102.534 229.429 102.386C229.906 102.235 230.408 102.159 230.934 102.159C231.283 102.159 231.652 102.201 232.042 102.284C232.436 102.364 232.804 102.511 233.145 102.727C233.489 102.943 233.772 103.252 233.991 103.653C234.211 104.051 234.321 104.568 234.321 105.205V111H232.662V109.807H232.593C232.484 110.027 232.319 110.242 232.099 110.455C231.879 110.667 231.597 110.843 231.253 110.983C230.908 111.123 230.495 111.193 230.014 111.193ZM230.383 109.83C230.853 109.83 231.254 109.737 231.588 109.551C231.925 109.366 232.181 109.123 232.355 108.824C232.533 108.521 232.622 108.197 232.622 107.852V106.727C232.561 106.788 232.444 106.845 232.27 106.898C232.099 106.947 231.904 106.991 231.684 107.028C231.465 107.062 231.251 107.095 231.042 107.125C230.834 107.152 230.66 107.174 230.52 107.193C230.19 107.235 229.889 107.305 229.616 107.403C229.347 107.502 229.131 107.644 228.968 107.83C228.809 108.011 228.73 108.254 228.73 108.557C228.73 108.977 228.885 109.295 229.196 109.511C229.506 109.723 229.902 109.83 230.383 109.83ZM236.408 111V102.273H238.05V103.659H238.141C238.3 103.189 238.58 102.82 238.981 102.551C239.387 102.278 239.845 102.142 240.356 102.142C240.462 102.142 240.587 102.146 240.731 102.153C240.879 102.161 240.995 102.17 241.078 102.182V103.807C241.01 103.788 240.889 103.767 240.714 103.744C240.54 103.718 240.366 103.705 240.192 103.705C239.79 103.705 239.432 103.79 239.118 103.96C238.807 104.127 238.561 104.36 238.379 104.659C238.197 104.955 238.106 105.292 238.106 105.67V111H236.408ZM243.935 108.04L243.923 105.966H244.219L247.696 102.273H249.73L245.764 106.477H245.497L243.935 108.04ZM242.372 111V99.3636H244.071V111H242.372ZM247.884 111L244.759 106.852L245.929 105.665L249.969 111H247.884Z" fill="black" fill-opacity="0.8"/>
<path d="M172.5 25C172.5 42.5 150 57.5 150 57.5C150 57.5 127.5 42.5 127.5 25C127.5 19.0326 129.871 13.3097 134.09 9.0901C138.31 4.87053 144.033 2.5 150 2.5C155.967 2.5 161.69 4.87053 165.91 9.0901C170.129 13.3097 172.5 19.0326 172.5 25Z" stroke="#EB0000" stroke-width="2" stroke-linecap="round" stroke-linejoin="round"/>
<path d="M150 32.5C154.142 32.5 157.5 29.1421 157.5 25C157.5 20.8579 154.142 17.5 150 17.5C145.858 17.5 142.5 20.8579 142.5 25C142.5 29.1421 145.858 32.5 150 32.5Z" stroke="#EB0000" stroke-width="2" stroke-linecap="round" stroke-linejoin="round"/>
</svg>
