<svg width="304" height="164" viewBox="0 0 304 164" fill="none" xmlns="http://www.w3.org/2000/svg">
<rect x="1" y="30" width="302" height="133" rx="6" fill="white" stroke="white" stroke-width="2" stroke-linecap="round"/>
<path d="M96.5585 82.4205C96.4979 81.8826 96.2479 81.4659 95.8085 81.1705C95.3691 80.8712 94.8161 80.7216 94.1494 80.7216C93.6721 80.7216 93.2593 80.7973 92.9108 80.9489C92.5623 81.0966 92.2915 81.3011 92.0983 81.5625C91.9089 81.8201 91.8142 82.1136 91.8142 82.4432C91.8142 82.7197 91.8786 82.9583 92.0074 83.1591C92.1399 83.3598 92.3123 83.5284 92.5244 83.6648C92.7403 83.7973 92.9714 83.9091 93.2176 84C93.4638 84.0871 93.7005 84.1591 93.9278 84.2159L95.0642 84.5114C95.4354 84.6023 95.8161 84.7254 96.2062 84.8807C96.5964 85.036 96.9581 85.2405 97.2915 85.4943C97.6248 85.7481 97.8937 86.0625 98.0983 86.4375C98.3066 86.8125 98.4108 87.2614 98.4108 87.7841C98.4108 88.4432 98.2403 89.0284 97.8994 89.5398C97.5623 90.0511 97.0718 90.4545 96.4278 90.75C95.7877 91.0455 95.013 91.1932 94.104 91.1932C93.2327 91.1932 92.479 91.0549 91.8426 90.7784C91.2062 90.5019 90.7081 90.1098 90.3483 89.6023C89.9884 89.0909 89.7896 88.4848 89.7517 87.7841H91.513C91.5471 88.2045 91.6835 88.5549 91.9221 88.8352C92.1646 89.1117 92.4733 89.3182 92.8483 89.4545C93.2271 89.5871 93.6418 89.6534 94.0926 89.6534C94.5888 89.6534 95.0301 89.5758 95.4165 89.4205C95.8066 89.2614 96.1134 89.0417 96.3369 88.7614C96.5604 88.4773 96.6721 88.1458 96.6721 87.767C96.6721 87.4223 96.5737 87.1402 96.3767 86.9205C96.1835 86.7008 95.9202 86.5189 95.5869 86.375C95.2574 86.2311 94.8843 86.1042 94.4676 85.9943L93.0926 85.6193C92.1608 85.3655 91.4221 84.9924 90.8767 84.5C90.335 84.0076 90.0642 83.3561 90.0642 82.5455C90.0642 81.875 90.246 81.2898 90.6096 80.7898C90.9733 80.2898 91.4657 79.9015 92.0869 79.625C92.7081 79.3447 93.4089 79.2045 94.1892 79.2045C94.9771 79.2045 95.6721 79.3428 96.2744 79.6193C96.8805 79.8958 97.3577 80.2765 97.7062 80.7614C98.0547 81.2424 98.2365 81.7955 98.2517 82.4205H96.5585ZM103.958 91.1761C103.098 91.1761 102.357 90.9924 101.736 90.625C101.119 90.2538 100.641 89.733 100.304 89.0625C99.971 88.3883 99.8044 87.5985 99.8044 86.6932C99.8044 85.7992 99.971 85.0114 100.304 84.3295C100.641 83.6477 101.111 83.1155 101.713 82.733C102.32 82.3504 103.028 82.1591 103.838 82.1591C104.331 82.1591 104.808 82.2405 105.27 82.4034C105.732 82.5663 106.147 82.822 106.515 83.1705C106.882 83.5189 107.172 83.9716 107.384 84.5284C107.596 85.0814 107.702 85.7538 107.702 86.5455V87.1477H100.765V85.875H106.037C106.037 85.428 105.946 85.0322 105.765 84.6875C105.583 84.339 105.327 84.0644 104.998 83.8636C104.672 83.6629 104.289 83.5625 103.85 83.5625C103.373 83.5625 102.956 83.6799 102.6 83.9148C102.248 84.1458 101.975 84.4489 101.782 84.8239C101.592 85.1951 101.498 85.5985 101.498 86.0341V87.0284C101.498 87.6117 101.6 88.108 101.804 88.517C102.013 88.9261 102.302 89.2386 102.674 89.4545C103.045 89.6667 103.479 89.7727 103.975 89.7727C104.297 89.7727 104.59 89.7273 104.856 89.6364C105.121 89.5417 105.35 89.4015 105.543 89.2159C105.736 89.0303 105.884 88.8011 105.986 88.5284L107.594 88.8182C107.465 89.2917 107.234 89.7064 106.901 90.0625C106.571 90.4148 106.157 90.6894 105.657 90.8864C105.16 91.0795 104.594 91.1761 103.958 91.1761ZM111.11 85.8182V91H109.411V82.2727H111.042V83.6932H111.15C111.35 83.2311 111.665 82.8598 112.093 82.5795C112.525 82.2992 113.068 82.1591 113.724 82.1591C114.318 82.1591 114.839 82.2841 115.286 82.5341C115.733 82.7803 116.08 83.1477 116.326 83.6364C116.572 84.125 116.695 84.7292 116.695 85.4489V91H114.996V85.6534C114.996 85.0208 114.832 84.5265 114.502 84.1705C114.172 83.8106 113.72 83.6307 113.144 83.6307C112.75 83.6307 112.4 83.7159 112.093 83.8864C111.79 84.0568 111.549 84.3068 111.371 84.6364C111.197 84.9621 111.11 85.3561 111.11 85.8182ZM122.065 91.1705C121.36 91.1705 120.731 90.9905 120.178 90.6307C119.629 90.267 119.197 89.75 118.883 89.0795C118.572 88.4053 118.417 87.5966 118.417 86.6534C118.417 85.7102 118.574 84.9034 118.888 84.233C119.207 83.5625 119.642 83.0492 120.195 82.6932C120.748 82.3371 121.375 82.1591 122.076 82.1591C122.618 82.1591 123.053 82.25 123.383 82.4318C123.716 82.6098 123.974 82.8182 124.156 83.0568C124.341 83.2955 124.485 83.5057 124.587 83.6875H124.69V79.3636H126.388V91H124.729V89.642H124.587C124.485 89.8277 124.337 90.0398 124.144 90.2784C123.955 90.517 123.693 90.7254 123.36 90.9034C123.027 91.0814 122.595 91.1705 122.065 91.1705ZM122.44 89.7216C122.928 89.7216 123.341 89.5928 123.678 89.3352C124.019 89.0739 124.277 88.7121 124.451 88.25C124.629 87.7879 124.718 87.25 124.718 86.6364C124.718 86.0303 124.631 85.5 124.457 85.0455C124.282 84.5909 124.027 84.2367 123.69 83.983C123.352 83.7292 122.936 83.6023 122.44 83.6023C121.928 83.6023 121.502 83.7348 121.161 84C120.82 84.2652 120.563 84.6269 120.388 85.0852C120.218 85.5436 120.133 86.0606 120.133 86.6364C120.133 87.2197 120.22 87.7443 120.394 88.2102C120.568 88.6761 120.826 89.0455 121.167 89.3182C121.512 89.5871 121.936 89.7216 122.44 89.7216ZM136.372 91.1761C135.553 91.1761 134.839 90.9886 134.23 90.6136C133.62 90.2386 133.146 89.714 132.809 89.0398C132.472 88.3655 132.303 87.5777 132.303 86.6761C132.303 85.7708 132.472 84.9792 132.809 84.3011C133.146 83.6231 133.62 83.0966 134.23 82.7216C134.839 82.3466 135.553 82.1591 136.372 82.1591C137.19 82.1591 137.904 82.3466 138.514 82.7216C139.124 83.0966 139.597 83.6231 139.934 84.3011C140.271 84.9792 140.44 85.7708 140.44 86.6761C140.44 87.5777 140.271 88.3655 139.934 89.0398C139.597 89.714 139.124 90.2386 138.514 90.6136C137.904 90.9886 137.19 91.1761 136.372 91.1761ZM136.377 89.75C136.908 89.75 137.347 89.6098 137.696 89.3295C138.044 89.0492 138.302 88.6761 138.468 88.2102C138.639 87.7443 138.724 87.2311 138.724 86.6705C138.724 86.1136 138.639 85.6023 138.468 85.1364C138.302 84.6667 138.044 84.2898 137.696 84.0057C137.347 83.7216 136.908 83.5795 136.377 83.5795C135.843 83.5795 135.4 83.7216 135.048 84.0057C134.699 84.2898 134.44 84.6667 134.269 85.1364C134.103 85.6023 134.019 86.1136 134.019 86.6705C134.019 87.2311 134.103 87.7443 134.269 88.2102C134.44 88.6761 134.699 89.0492 135.048 89.3295C135.4 89.6098 135.843 89.75 136.377 89.75ZM148.7 84.4034L147.16 84.6761C147.096 84.4792 146.994 84.2917 146.853 84.1136C146.717 83.9356 146.531 83.7898 146.297 83.6761C146.062 83.5625 145.768 83.5057 145.416 83.5057C144.935 83.5057 144.533 83.6136 144.211 83.8295C143.889 84.0417 143.728 84.3163 143.728 84.6534C143.728 84.9451 143.836 85.1799 144.052 85.358C144.268 85.536 144.617 85.6818 145.098 85.7955L146.484 86.1136C147.287 86.2992 147.886 86.5852 148.279 86.9716C148.673 87.358 148.87 87.8598 148.87 88.4773C148.87 89 148.719 89.4659 148.416 89.875C148.117 90.2803 147.698 90.5985 147.16 90.8295C146.626 91.0606 146.007 91.1761 145.302 91.1761C144.325 91.1761 143.528 90.9678 142.91 90.5511C142.293 90.1307 141.914 89.5341 141.774 88.7614L143.416 88.5114C143.518 88.9394 143.728 89.2633 144.047 89.483C144.365 89.6989 144.779 89.8068 145.291 89.8068C145.848 89.8068 146.293 89.6913 146.626 89.4602C146.959 89.2254 147.126 88.9394 147.126 88.6023C147.126 88.3295 147.024 88.1004 146.819 87.9148C146.619 87.7292 146.31 87.589 145.893 87.4943L144.416 87.1705C143.601 86.9848 142.999 86.6894 142.609 86.2841C142.223 85.8788 142.029 85.3655 142.029 84.7443C142.029 84.2292 142.173 83.7784 142.461 83.392C142.749 83.0057 143.147 82.7045 143.654 82.4886C144.162 82.2689 144.744 82.1591 145.399 82.1591C146.342 82.1591 147.084 82.3636 147.626 82.7727C148.168 83.178 148.526 83.7216 148.7 84.4034ZM158.382 91.1761C157.522 91.1761 156.782 90.9924 156.16 90.625C155.543 90.2538 155.066 89.733 154.729 89.0625C154.395 88.3883 154.229 87.5985 154.229 86.6932C154.229 85.7992 154.395 85.0114 154.729 84.3295C155.066 83.6477 155.535 83.1155 156.138 82.733C156.744 82.3504 157.452 82.1591 158.263 82.1591C158.755 82.1591 159.232 82.2405 159.695 82.4034C160.157 82.5663 160.571 82.822 160.939 83.1705C161.306 83.5189 161.596 83.9716 161.808 84.5284C162.02 85.0814 162.126 85.7538 162.126 86.5455V87.1477H155.189V85.875H160.462C160.462 85.428 160.371 85.0322 160.189 84.6875C160.007 84.339 159.751 84.0644 159.422 83.8636C159.096 83.6629 158.713 83.5625 158.274 83.5625C157.797 83.5625 157.38 83.6799 157.024 83.9148C156.672 84.1458 156.399 84.4489 156.206 84.8239C156.017 85.1951 155.922 85.5985 155.922 86.0341V87.0284C155.922 87.6117 156.024 88.108 156.229 88.517C156.437 88.9261 156.727 89.2386 157.098 89.4545C157.469 89.6667 157.903 89.7727 158.399 89.7727C158.721 89.7727 159.015 89.7273 159.28 89.6364C159.545 89.5417 159.774 89.4015 159.967 89.2159C160.16 89.0303 160.308 88.8011 160.41 88.5284L162.018 88.8182C161.89 89.2917 161.659 89.7064 161.325 90.0625C160.996 90.4148 160.581 90.6894 160.081 90.8864C159.585 91.0795 159.018 91.1761 158.382 91.1761ZM165.534 85.8182V91H163.835V82.2727H165.466V83.6932H165.574C165.775 83.2311 166.089 82.8598 166.517 82.5795C166.949 82.2992 167.492 82.1591 168.148 82.1591C168.742 82.1591 169.263 82.2841 169.71 82.5341C170.157 82.7803 170.504 83.1477 170.75 83.6364C170.996 84.125 171.119 84.7292 171.119 85.4489V91H169.421V85.6534C169.421 85.0208 169.256 84.5265 168.926 84.1705C168.597 83.8106 168.144 83.6307 167.568 83.6307C167.174 83.6307 166.824 83.7159 166.517 83.8864C166.214 84.0568 165.974 84.3068 165.796 84.6364C165.621 84.9621 165.534 85.3561 165.534 85.8182ZM177.28 91V82.2727H178.911V83.6932H179.019C179.201 83.2121 179.498 82.8371 179.911 82.5682C180.324 82.2955 180.818 82.1591 181.394 82.1591C181.977 82.1591 182.466 82.2955 182.86 82.5682C183.257 82.8409 183.551 83.2159 183.74 83.6932H183.831C184.04 83.2273 184.371 82.8561 184.826 82.5795C185.28 82.2992 185.822 82.1591 186.451 82.1591C187.242 82.1591 187.888 82.4072 188.388 82.9034C188.892 83.3996 189.144 84.1477 189.144 85.1477V91H187.445V85.3068C187.445 84.7159 187.284 84.2879 186.962 84.0227C186.64 83.7576 186.256 83.625 185.809 83.625C185.256 83.625 184.826 83.7955 184.519 84.1364C184.212 84.4735 184.059 84.9072 184.059 85.4375V91H182.365V85.1989C182.365 84.7254 182.218 84.3447 181.922 84.0568C181.627 83.7689 181.242 83.625 180.769 83.625C180.447 83.625 180.149 83.7102 179.877 83.8807C179.608 84.0473 179.39 84.2803 179.223 84.5795C179.06 84.8788 178.979 85.2254 178.979 85.6193V91H177.28ZM193.785 91.1932C193.232 91.1932 192.732 91.0909 192.285 90.8864C191.838 90.678 191.483 90.3769 191.222 89.983C190.964 89.589 190.836 89.1061 190.836 88.5341C190.836 88.0417 190.93 87.6364 191.12 87.3182C191.309 87 191.565 86.7481 191.887 86.5625C192.209 86.3769 192.569 86.2367 192.966 86.142C193.364 86.0473 193.769 85.9754 194.182 85.9261C194.705 85.8655 195.129 85.8163 195.455 85.7784C195.781 85.7367 196.018 85.6705 196.165 85.5795C196.313 85.4886 196.387 85.3409 196.387 85.1364V85.0966C196.387 84.6004 196.247 84.2159 195.966 83.9432C195.69 83.6705 195.277 83.5341 194.728 83.5341C194.156 83.5341 193.705 83.661 193.375 83.9148C193.05 84.1648 192.824 84.4432 192.699 84.75L191.103 84.3864C191.292 83.8561 191.569 83.428 191.932 83.1023C192.3 82.7727 192.722 82.5341 193.199 82.3864C193.677 82.2348 194.179 82.1591 194.705 82.1591C195.054 82.1591 195.423 82.2008 195.813 82.2841C196.207 82.3636 196.574 82.5114 196.915 82.7273C197.26 82.9432 197.542 83.2519 197.762 83.6534C197.982 84.0511 198.091 84.5682 198.091 85.2045V91H196.432V89.8068H196.364C196.254 90.0265 196.089 90.2424 195.87 90.4545C195.65 90.6667 195.368 90.8428 195.023 90.983C194.679 91.1231 194.266 91.1932 193.785 91.1932ZM194.154 89.8295C194.624 89.8295 195.025 89.7367 195.358 89.5511C195.696 89.3655 195.951 89.1231 196.125 88.8239C196.304 88.5208 196.393 88.197 196.393 87.8523V86.7273C196.332 86.7879 196.214 86.8447 196.04 86.8977C195.87 86.947 195.675 86.9905 195.455 87.0284C195.235 87.0625 195.021 87.0947 194.813 87.125C194.605 87.1515 194.43 87.1742 194.29 87.1932C193.961 87.2348 193.66 87.3049 193.387 87.4034C193.118 87.5019 192.902 87.6439 192.739 87.8295C192.58 88.0114 192.5 88.2538 192.5 88.5568C192.5 88.9773 192.656 89.2955 192.966 89.5114C193.277 89.7235 193.673 89.8295 194.154 89.8295ZM200.178 91V82.2727H201.877V91H200.178ZM201.036 80.9261C200.741 80.9261 200.487 80.8277 200.275 80.6307C200.066 80.4299 199.962 80.1913 199.962 79.9148C199.962 79.6345 200.066 79.3958 200.275 79.1989C200.487 78.9981 200.741 78.8977 201.036 78.8977C201.332 78.8977 201.583 78.9981 201.792 79.1989C202.004 79.3958 202.11 79.6345 202.11 79.9148C202.11 80.1913 202.004 80.4299 201.792 80.6307C201.583 80.8277 201.332 80.9261 201.036 80.9261ZM205.685 79.3636V91H203.987V79.3636H205.685ZM212.973 91.108C212.662 91.108 212.395 90.9981 212.171 90.7784C211.948 90.5549 211.836 90.286 211.836 89.9716C211.836 89.661 211.948 89.3958 212.171 89.1761C212.395 88.9527 212.662 88.8409 212.973 88.8409C213.283 88.8409 213.55 88.9527 213.774 89.1761C213.997 89.3958 214.109 89.661 214.109 89.9716C214.109 90.1799 214.056 90.3712 213.95 90.5455C213.848 90.7159 213.711 90.8523 213.541 90.9545C213.37 91.0568 213.181 91.108 212.973 91.108ZM212.973 84.7557C212.662 84.7557 212.395 84.6439 212.171 84.4205C211.948 84.197 211.836 83.9299 211.836 83.6193C211.836 83.3087 211.948 83.0436 212.171 82.8239C212.395 82.6004 212.662 82.4886 212.973 82.4886C213.283 82.4886 213.55 82.6004 213.774 82.8239C213.997 83.0436 214.109 83.3087 214.109 83.6193C214.109 83.8277 214.056 84.0189 213.95 84.1932C213.848 84.3636 213.711 84.5 213.541 84.6023C213.37 84.7045 213.181 84.7557 212.973 84.7557ZM77.2417 115V106.273H78.8837V107.659H78.9746C79.1337 107.189 79.414 106.82 79.8155 106.551C80.2208 106.278 80.6792 106.142 81.1905 106.142C81.2966 106.142 81.4216 106.146 81.5655 106.153C81.7133 106.161 81.8288 106.17 81.9121 106.182V107.807C81.8439 107.788 81.7227 107.767 81.5485 107.744C81.3742 107.718 81.2 107.705 81.0258 107.705C80.6242 107.705 80.2663 107.79 79.9519 107.96C79.6413 108.127 79.3951 108.36 79.2133 108.659C79.0314 108.955 78.9405 109.292 78.9405 109.67V115H77.2417ZM86.5699 115.176C85.7517 115.176 85.0377 114.989 84.4279 114.614C83.818 114.239 83.3446 113.714 83.0074 113.04C82.6703 112.366 82.5017 111.578 82.5017 110.676C82.5017 109.771 82.6703 108.979 83.0074 108.301C83.3446 107.623 83.818 107.097 84.4279 106.722C85.0377 106.347 85.7517 106.159 86.5699 106.159C87.3881 106.159 88.1021 106.347 88.712 106.722C89.3218 107.097 89.7953 107.623 90.1324 108.301C90.4696 108.979 90.6381 109.771 90.6381 110.676C90.6381 111.578 90.4696 112.366 90.1324 113.04C89.7953 113.714 89.3218 114.239 88.712 114.614C88.1021 114.989 87.3881 115.176 86.5699 115.176ZM86.5756 113.75C87.1059 113.75 87.5453 113.61 87.8938 113.33C88.2423 113.049 88.4999 112.676 88.6665 112.21C88.837 111.744 88.9222 111.231 88.9222 110.67C88.9222 110.114 88.837 109.602 88.6665 109.136C88.4999 108.667 88.2423 108.29 87.8938 108.006C87.5453 107.722 87.1059 107.58 86.5756 107.58C86.0415 107.58 85.5983 107.722 85.2461 108.006C84.8976 108.29 84.6381 108.667 84.4677 109.136C84.301 109.602 84.2177 110.114 84.2177 110.67C84.2177 111.231 84.301 111.744 84.4677 112.21C84.6381 112.676 84.8976 113.049 85.2461 113.33C85.5983 113.61 86.0415 113.75 86.5756 113.75ZM94.0573 109.818V115H92.3584V106.273H93.9891V107.693H94.0971C94.2978 107.231 94.6122 106.86 95.0402 106.58C95.4721 106.299 96.0156 106.159 96.6709 106.159C97.2656 106.159 97.7865 106.284 98.2334 106.534C98.6804 106.78 99.027 107.148 99.2732 107.636C99.5194 108.125 99.6425 108.729 99.6425 109.449V115H97.9437V109.653C97.9437 109.021 97.7789 108.527 97.4493 108.17C97.1198 107.811 96.6671 107.631 96.0914 107.631C95.6974 107.631 95.3471 107.716 95.0402 107.886C94.7372 108.057 94.4967 108.307 94.3187 108.636C94.1444 108.962 94.0573 109.356 94.0573 109.818ZM103.444 109.818V115H101.745V106.273H103.376V107.693H103.484C103.684 107.231 103.999 106.86 104.427 106.58C104.859 106.299 105.402 106.159 106.057 106.159C106.652 106.159 107.173 106.284 107.62 106.534C108.067 106.78 108.413 107.148 108.66 107.636C108.906 108.125 109.029 108.729 109.029 109.449V115H107.33V109.653C107.33 109.021 107.165 108.527 106.836 108.17C106.506 107.811 106.054 107.631 105.478 107.631C105.084 107.631 104.734 107.716 104.427 107.886C104.124 108.057 103.883 108.307 103.705 108.636C103.531 108.962 103.444 109.356 103.444 109.818ZM111.131 115V106.273H112.83V115H111.131ZM111.989 104.926C111.694 104.926 111.44 104.828 111.228 104.631C111.02 104.43 110.916 104.191 110.916 103.915C110.916 103.634 111.02 103.396 111.228 103.199C111.44 102.998 111.694 102.898 111.989 102.898C112.285 102.898 112.537 102.998 112.745 103.199C112.957 103.396 113.063 103.634 113.063 103.915C113.063 104.191 112.957 104.43 112.745 104.631C112.537 104.828 112.285 104.926 111.989 104.926ZM121.945 118.165C120.771 118.165 119.73 118.004 118.82 117.682C117.915 117.364 117.152 116.894 116.531 116.273C115.909 115.655 115.438 114.898 115.116 114C114.794 113.102 114.633 112.078 114.633 110.926C114.633 109.805 114.796 108.797 115.122 107.903C115.447 107.009 115.921 106.248 116.542 105.619C117.167 104.987 117.927 104.504 118.82 104.17C119.714 103.837 120.73 103.67 121.866 103.67C122.953 103.67 123.911 103.841 124.741 104.182C125.57 104.523 126.267 104.991 126.832 105.585C127.4 106.18 127.828 106.862 128.116 107.631C128.404 108.4 128.548 109.212 128.548 110.068C128.548 110.667 128.51 111.252 128.434 111.824C128.358 112.392 128.218 112.907 128.014 113.369C127.813 113.828 127.521 114.195 127.139 114.472C126.76 114.744 126.267 114.886 125.661 114.898C125.339 114.909 125.027 114.871 124.724 114.784C124.421 114.697 124.163 114.557 123.951 114.364C123.739 114.167 123.61 113.917 123.565 113.614H123.497C123.406 113.837 123.254 114.045 123.042 114.239C122.83 114.428 122.559 114.58 122.23 114.693C121.904 114.803 121.525 114.848 121.093 114.83C120.616 114.811 120.186 114.703 119.803 114.506C119.421 114.309 119.093 114.036 118.82 113.688C118.552 113.339 118.345 112.926 118.201 112.449C118.057 111.972 117.985 111.441 117.985 110.858C117.985 110.297 118.067 109.795 118.23 109.352C118.392 108.905 118.614 108.521 118.894 108.199C119.178 107.873 119.504 107.616 119.872 107.426C120.239 107.237 120.627 107.117 121.036 107.068C121.434 107.023 121.8 107.034 122.133 107.102C122.466 107.17 122.743 107.275 122.963 107.415C123.186 107.555 123.326 107.708 123.383 107.875H123.457V107.239H124.855V112.511C124.855 112.811 124.932 113.064 125.088 113.273C125.247 113.481 125.472 113.585 125.764 113.585C126.108 113.585 126.377 113.458 126.57 113.205C126.767 112.951 126.906 112.561 126.985 112.034C127.069 111.508 127.11 110.833 127.11 110.011C127.11 109.436 127.033 108.894 126.877 108.386C126.726 107.875 126.5 107.413 126.201 107C125.906 106.583 125.542 106.225 125.11 105.926C124.678 105.627 124.186 105.396 123.633 105.233C123.084 105.07 122.476 104.989 121.809 104.989C120.904 104.989 120.099 105.129 119.394 105.409C118.69 105.686 118.095 106.085 117.61 106.608C117.129 107.131 116.764 107.758 116.514 108.489C116.267 109.216 116.144 110.032 116.144 110.938C116.144 111.881 116.271 112.718 116.525 113.449C116.779 114.176 117.154 114.79 117.65 115.29C118.146 115.79 118.76 116.169 119.491 116.426C120.222 116.688 121.065 116.818 122.019 116.818C122.444 116.818 122.86 116.78 123.269 116.705C123.678 116.633 124.042 116.549 124.36 116.455C124.682 116.364 124.923 116.29 125.082 116.233L125.48 117.477C125.245 117.587 124.932 117.695 124.542 117.801C124.156 117.907 123.735 117.994 123.281 118.062C122.83 118.131 122.385 118.165 121.945 118.165ZM121.423 113.438C121.915 113.438 122.311 113.339 122.61 113.142C122.913 112.945 123.131 112.652 123.264 112.261C123.4 111.867 123.468 111.375 123.468 110.784C123.464 110.208 123.391 109.75 123.247 109.409C123.106 109.064 122.887 108.818 122.588 108.67C122.292 108.519 121.911 108.443 121.445 108.443C121.017 108.443 120.652 108.547 120.349 108.756C120.05 108.964 119.82 109.246 119.661 109.602C119.506 109.958 119.427 110.354 119.423 110.79C119.427 111.248 119.491 111.68 119.616 112.085C119.745 112.487 119.953 112.812 120.241 113.062C120.533 113.312 120.927 113.438 121.423 113.438ZM131.947 109.818V115H130.248V106.273H131.879V107.693H131.987C132.188 107.231 132.502 106.86 132.93 106.58C133.362 106.299 133.905 106.159 134.561 106.159C135.155 106.159 135.676 106.284 136.123 106.534C136.57 106.78 136.917 107.148 137.163 107.636C137.409 108.125 137.532 108.729 137.532 109.449V115H135.833V109.653C135.833 109.021 135.669 108.527 135.339 108.17C135.01 107.811 134.557 107.631 133.981 107.631C133.587 107.631 133.237 107.716 132.93 107.886C132.627 108.057 132.386 108.307 132.208 108.636C132.034 108.962 131.947 109.356 131.947 109.818ZM140.396 118.273C140.142 118.273 139.911 118.252 139.703 118.21C139.495 118.172 139.339 118.131 139.237 118.085L139.646 116.693C139.957 116.777 140.233 116.813 140.476 116.801C140.718 116.79 140.932 116.699 141.118 116.528C141.307 116.358 141.474 116.08 141.618 115.693L141.828 115.114L138.635 106.273H140.453L142.663 113.045H142.754L144.964 106.273H146.788L143.191 116.165C143.025 116.619 142.813 117.004 142.555 117.318C142.298 117.636 141.991 117.875 141.635 118.034C141.279 118.193 140.866 118.273 140.396 118.273ZM151.179 115.17C150.474 115.17 149.846 114.991 149.292 114.631C148.743 114.267 148.311 113.75 147.997 113.08C147.686 112.405 147.531 111.597 147.531 110.653C147.531 109.71 147.688 108.903 148.003 108.233C148.321 107.562 148.756 107.049 149.31 106.693C149.863 106.337 150.489 106.159 151.19 106.159C151.732 106.159 152.167 106.25 152.497 106.432C152.83 106.61 153.088 106.818 153.27 107.057C153.455 107.295 153.599 107.506 153.702 107.688H153.804V103.364H155.503V115H153.844V113.642H153.702C153.599 113.828 153.452 114.04 153.258 114.278C153.069 114.517 152.808 114.725 152.474 114.903C152.141 115.081 151.709 115.17 151.179 115.17ZM151.554 113.722C152.042 113.722 152.455 113.593 152.792 113.335C153.133 113.074 153.391 112.712 153.565 112.25C153.743 111.788 153.832 111.25 153.832 110.636C153.832 110.03 153.745 109.5 153.571 109.045C153.397 108.591 153.141 108.237 152.804 107.983C152.467 107.729 152.05 107.602 151.554 107.602C151.042 107.602 150.616 107.735 150.275 108C149.935 108.265 149.677 108.627 149.503 109.085C149.332 109.544 149.247 110.061 149.247 110.636C149.247 111.22 149.334 111.744 149.508 112.21C149.683 112.676 149.94 113.045 150.281 113.318C150.626 113.587 151.05 113.722 151.554 113.722ZM160.291 115.193C159.738 115.193 159.238 115.091 158.791 114.886C158.344 114.678 157.99 114.377 157.729 113.983C157.471 113.589 157.342 113.106 157.342 112.534C157.342 112.042 157.437 111.636 157.626 111.318C157.816 111 158.071 110.748 158.393 110.562C158.715 110.377 159.075 110.237 159.473 110.142C159.871 110.047 160.276 109.975 160.689 109.926C161.212 109.866 161.636 109.816 161.962 109.778C162.287 109.737 162.524 109.67 162.672 109.58C162.82 109.489 162.893 109.341 162.893 109.136V109.097C162.893 108.6 162.753 108.216 162.473 107.943C162.196 107.67 161.784 107.534 161.234 107.534C160.662 107.534 160.212 107.661 159.882 107.915C159.556 108.165 159.331 108.443 159.206 108.75L157.609 108.386C157.799 107.856 158.075 107.428 158.439 107.102C158.806 106.773 159.229 106.534 159.706 106.386C160.183 106.235 160.685 106.159 161.212 106.159C161.56 106.159 161.929 106.201 162.32 106.284C162.714 106.364 163.081 106.511 163.422 106.727C163.767 106.943 164.049 107.252 164.268 107.653C164.488 108.051 164.598 108.568 164.598 109.205V115H162.939V113.807H162.871C162.761 114.027 162.596 114.242 162.376 114.455C162.157 114.667 161.875 114.843 161.53 114.983C161.185 115.123 160.772 115.193 160.291 115.193ZM160.661 113.83C161.13 113.83 161.532 113.737 161.865 113.551C162.202 113.366 162.458 113.123 162.632 112.824C162.81 112.521 162.899 112.197 162.899 111.852V110.727C162.839 110.788 162.721 110.845 162.547 110.898C162.376 110.947 162.181 110.991 161.962 111.028C161.742 111.062 161.528 111.095 161.32 111.125C161.111 111.152 160.937 111.174 160.797 111.193C160.467 111.235 160.166 111.305 159.893 111.403C159.625 111.502 159.409 111.644 159.246 111.83C159.087 112.011 159.007 112.254 159.007 112.557C159.007 112.977 159.162 113.295 159.473 113.511C159.784 113.723 160.179 113.83 160.661 113.83ZM168.384 109.818V115H166.685V103.364H168.361V107.693H168.469C168.673 107.223 168.986 106.85 169.406 106.574C169.827 106.297 170.376 106.159 171.054 106.159C171.653 106.159 172.175 106.282 172.622 106.528C173.073 106.775 173.422 107.142 173.668 107.631C173.918 108.116 174.043 108.722 174.043 109.449V115H172.344V109.653C172.344 109.013 172.179 108.517 171.85 108.165C171.52 107.809 171.062 107.631 170.475 107.631C170.073 107.631 169.713 107.716 169.395 107.886C169.081 108.057 168.833 108.307 168.651 108.636C168.473 108.962 168.384 109.356 168.384 109.818ZM177.833 103.364V115H176.134V103.364H177.833ZM187.408 106.273L184.243 115H182.425L179.255 106.273H181.079L183.289 112.989H183.38L185.584 106.273H187.408ZM196.295 106.273L193.13 115H191.312L188.141 106.273H189.965L192.175 112.989H192.266L194.471 106.273H196.295ZM204.255 108.403L202.715 108.676C202.651 108.479 202.548 108.292 202.408 108.114C202.272 107.936 202.086 107.79 201.852 107.676C201.617 107.562 201.323 107.506 200.971 107.506C200.49 107.506 200.088 107.614 199.766 107.83C199.444 108.042 199.283 108.316 199.283 108.653C199.283 108.945 199.391 109.18 199.607 109.358C199.823 109.536 200.172 109.682 200.653 109.795L202.039 110.114C202.842 110.299 203.441 110.585 203.834 110.972C204.228 111.358 204.425 111.86 204.425 112.477C204.425 113 204.274 113.466 203.971 113.875C203.672 114.28 203.253 114.598 202.715 114.83C202.181 115.061 201.562 115.176 200.857 115.176C199.88 115.176 199.083 114.968 198.465 114.551C197.848 114.131 197.469 113.534 197.329 112.761L198.971 112.511C199.073 112.939 199.283 113.263 199.602 113.483C199.92 113.699 200.334 113.807 200.846 113.807C201.403 113.807 201.848 113.691 202.181 113.46C202.514 113.225 202.681 112.939 202.681 112.602C202.681 112.33 202.579 112.1 202.374 111.915C202.173 111.729 201.865 111.589 201.448 111.494L199.971 111.17C199.156 110.985 198.554 110.689 198.164 110.284C197.778 109.879 197.584 109.366 197.584 108.744C197.584 108.229 197.728 107.778 198.016 107.392C198.304 107.006 198.702 106.705 199.209 106.489C199.717 106.269 200.298 106.159 200.954 106.159C201.897 106.159 202.639 106.364 203.181 106.773C203.723 107.178 204.081 107.722 204.255 108.403ZM207.237 115.108C206.926 115.108 206.659 114.998 206.435 114.778C206.212 114.555 206.1 114.286 206.1 113.972C206.1 113.661 206.212 113.396 206.435 113.176C206.659 112.953 206.926 112.841 207.237 112.841C207.547 112.841 207.814 112.953 208.038 113.176C208.261 113.396 208.373 113.661 208.373 113.972C208.373 114.18 208.32 114.371 208.214 114.545C208.112 114.716 207.975 114.852 207.805 114.955C207.634 115.057 207.445 115.108 207.237 115.108ZM213.74 115.17C213.035 115.17 212.406 114.991 211.853 114.631C211.304 114.267 210.872 113.75 210.558 113.08C210.247 112.405 210.092 111.597 210.092 110.653C210.092 109.71 210.249 108.903 210.563 108.233C210.882 107.562 211.317 107.049 211.87 106.693C212.423 106.337 213.05 106.159 213.751 106.159C214.293 106.159 214.728 106.25 215.058 106.432C215.391 106.61 215.649 106.818 215.831 107.057C216.016 107.295 216.16 107.506 216.262 107.688H216.365V103.364H218.063V115H216.404V113.642H216.262C216.16 113.828 216.012 114.04 215.819 114.278C215.63 114.517 215.368 114.725 215.035 114.903C214.702 115.081 214.27 115.17 213.74 115.17ZM214.115 113.722C214.603 113.722 215.016 113.593 215.353 113.335C215.694 113.074 215.952 112.712 216.126 112.25C216.304 111.788 216.393 111.25 216.393 110.636C216.393 110.03 216.306 109.5 216.132 109.045C215.957 108.591 215.702 108.237 215.365 107.983C215.027 107.729 214.611 107.602 214.115 107.602C213.603 107.602 213.177 107.735 212.836 108C212.495 108.265 212.238 108.627 212.063 109.085C211.893 109.544 211.808 110.061 211.808 110.636C211.808 111.22 211.895 111.744 212.069 112.21C212.243 112.676 212.501 113.045 212.842 113.318C213.187 113.587 213.611 113.722 214.115 113.722ZM221.875 112.04L221.863 109.966H222.159L225.636 106.273H227.67L223.704 110.477H223.437L221.875 112.04ZM220.312 115V103.364H222.011V115H220.312ZM225.824 115L222.699 110.852L223.869 109.665L227.909 115H225.824Z" fill="black" fill-opacity="0.8"/>
<path d="M177 15L152 32.5L127 15" stroke="#EB0000" stroke-width="2" stroke-linecap="round" stroke-linejoin="round"/>
<path d="M132 10H172C174.75 10 177 12.25 177 15V45C177 47.75 174.75 50 172 50H132C129.25 50 127 47.75 127 45V15C127 12.25 129.25 10 132 10Z" stroke="#EB0000" stroke-width="2" stroke-linecap="round" stroke-linejoin="round"/>
</svg>
