<svg width="241" height="30" viewBox="0 0 241 30" fill="none" xmlns="http://www.w3.org/2000/svg">
<path d="M26 10.5L13.5 19.25L1 10.5" stroke="black" stroke-width="2" stroke-linecap="round" stroke-linejoin="round"/>
<path d="M3.5 8H23.5C24.875 8 26 9.125 26 10.5V25.5C26 26.875 24.875 28 23.5 28H3.5C2.125 28 1 26.875 1 25.5V10.5C1 9.125 2.125 8 3.5 8Z" stroke="black" stroke-width="2" stroke-linecap="round" stroke-linejoin="round"/>
<path d="M42.44 23V12.22H44.26V14.2L44.06 13.92C44.3133 13.3067 44.7 12.8533 45.22 12.56C45.74 12.2533 46.3733 12.1 47.12 12.1H47.78V13.86H46.84C46.08 13.86 45.4667 14.1 45 14.58C44.5333 15.0467 44.3 15.7133 44.3 16.58V23H42.44ZM54.3322 23.24C53.2922 23.24 52.3522 23 51.5122 22.52C50.6722 22.0267 50.0055 21.3533 49.5122 20.5C49.0189 19.6467 48.7722 18.68 48.7722 17.6C48.7722 16.52 49.0122 15.56 49.4922 14.72C49.9855 13.88 50.6522 13.2133 51.4922 12.72C52.3322 12.2267 53.2789 11.98 54.3322 11.98C55.3722 11.98 56.3122 12.2267 57.1522 12.72C57.9922 13.2 58.6522 13.86 59.1322 14.7C59.6255 15.54 59.8722 16.5067 59.8722 17.6C59.8722 18.6933 59.6189 19.6667 59.1122 20.52C58.6055 21.36 57.9322 22.0267 57.0922 22.52C56.2655 23 55.3455 23.24 54.3322 23.24ZM54.3322 21.44C54.9989 21.44 55.5989 21.2733 56.1322 20.94C56.6789 20.6067 57.1055 20.1467 57.4122 19.56C57.7322 18.9733 57.8922 18.32 57.8922 17.6C57.8922 16.8667 57.7322 16.22 57.4122 15.66C57.1055 15.0867 56.6789 14.6333 56.1322 14.3C55.5989 13.9533 54.9989 13.78 54.3322 13.78C53.6522 13.78 53.0389 13.9533 52.4922 14.3C51.9589 14.6333 51.5322 15.0867 51.2122 15.66C50.8922 16.22 50.7322 16.8667 50.7322 17.6C50.7322 18.32 50.8922 18.9733 51.2122 19.56C51.5322 20.1467 51.9589 20.6067 52.4922 20.94C53.0389 21.2733 53.6522 21.44 54.3322 21.44ZM62.0781 23V12.22H63.8981V14.32L63.5981 14.14C63.8648 13.46 64.2915 12.9333 64.8781 12.56C65.4781 12.1733 66.1781 11.98 66.9781 11.98C67.7515 11.98 68.4381 12.1533 69.0381 12.5C69.6515 12.8467 70.1315 13.3267 70.4781 13.94C70.8381 14.5533 71.0181 15.2467 71.0181 16.02V23H69.1381V16.62C69.1381 16.02 69.0315 15.5133 68.8181 15.1C68.6048 14.6867 68.2981 14.3667 67.8981 14.14C67.5115 13.9 67.0648 13.78 66.5581 13.78C66.0515 13.78 65.5981 13.9 65.1981 14.14C64.8115 14.3667 64.5048 14.6933 64.2781 15.12C64.0515 15.5333 63.9381 16.0333 63.9381 16.62V23H62.0781ZM73.4597 23V12.22H75.2797V14.32L74.9797 14.14C75.2464 13.46 75.673 12.9333 76.2597 12.56C76.8597 12.1733 77.5597 11.98 78.3597 11.98C79.133 11.98 79.8197 12.1533 80.4197 12.5C81.033 12.8467 81.513 13.3267 81.8597 13.94C82.2197 14.5533 82.3997 15.2467 82.3997 16.02V23H80.5197V16.62C80.5197 16.02 80.413 15.5133 80.1997 15.1C79.9864 14.6867 79.6797 14.3667 79.2797 14.14C78.893 13.9 78.4464 13.78 77.9397 13.78C77.433 13.78 76.9797 13.9 76.5797 14.14C76.193 14.3667 75.8864 14.6933 75.6597 15.12C75.433 15.5333 75.3197 16.0333 75.3197 16.62V23H73.4597ZM84.8412 23V12.22H86.7012V23H84.8412ZM84.8412 10.5V8.1H86.7012V10.5H84.8412ZM97.5873 27.22C96.3873 27.22 95.274 27.0067 94.2473 26.58C93.2207 26.1667 92.3207 25.58 91.5473 24.82C90.7873 24.06 90.194 23.1733 89.7673 22.16C89.354 21.1333 89.1473 20.02 89.1473 18.82C89.1473 17.6333 89.3607 16.5333 89.7873 15.52C90.214 14.5067 90.8073 13.6267 91.5673 12.88C92.3273 12.12 93.2207 11.5333 94.2473 11.12C95.274 10.6933 96.3807 10.48 97.5673 10.48C98.794 10.48 99.914 10.7 100.927 11.14C101.941 11.58 102.814 12.1867 103.547 12.96C104.294 13.72 104.867 14.6 105.267 15.6C105.681 16.5867 105.887 17.64 105.887 18.76C105.887 19.6133 105.747 20.36 105.467 21C105.201 21.6267 104.814 22.12 104.307 22.48C103.801 22.8267 103.201 23 102.507 23C102.081 23 101.667 22.92 101.267 22.76C100.867 22.6 100.527 22.36 100.247 22.04C99.9807 21.72 99.814 21.3267 99.7473 20.86L100.127 21.36C99.9407 21.72 99.6873 22.02 99.3673 22.26C99.0607 22.5 98.7073 22.6867 98.3073 22.82C97.9207 22.94 97.5007 23 97.0473 23C96.274 23 95.574 22.8133 94.9473 22.44C94.334 22.0667 93.8407 21.56 93.4673 20.92C93.1073 20.28 92.9273 19.5533 92.9273 18.74C92.9273 17.9267 93.1073 17.2 93.4673 16.56C93.8273 15.9067 94.3207 15.3867 94.9473 15C95.5873 14.6133 96.3007 14.42 97.0873 14.42C97.7407 14.42 98.334 14.5533 98.8673 14.82C99.4007 15.0733 99.8007 15.4267 100.067 15.88L99.9073 16.28V14.62H101.387V19.98C101.387 20.4733 101.487 20.84 101.687 21.08C101.901 21.3067 102.187 21.42 102.547 21.42C103.067 21.42 103.467 21.2067 103.747 20.78C104.027 20.34 104.167 19.6667 104.167 18.76C104.167 17.8133 104.007 16.94 103.687 16.14C103.381 15.3267 102.941 14.62 102.367 14.02C101.794 13.4067 101.101 12.9333 100.287 12.6C99.4873 12.2533 98.5873 12.08 97.5873 12.08C96.614 12.08 95.714 12.2533 94.8873 12.6C94.074 12.9333 93.3607 13.4 92.7473 14C92.1473 14.6 91.6807 15.3067 91.3473 16.12C91.0273 16.9333 90.8673 17.8267 90.8673 18.8C90.8673 19.76 91.0273 20.6533 91.3473 21.48C91.6807 22.3067 92.1473 23.0267 92.7473 23.64C93.3473 24.2667 94.054 24.7533 94.8673 25.1C95.694 25.4467 96.6073 25.62 97.6073 25.62C98.2207 25.62 98.8073 25.5467 99.3673 25.4C99.9407 25.2667 100.454 25.0667 100.907 24.8L101.647 26.18C100.474 26.8733 99.1207 27.22 97.5873 27.22ZM97.1673 21.42C97.6607 21.42 98.1007 21.3 98.4873 21.06C98.874 20.82 99.174 20.5 99.3873 20.1C99.614 19.6867 99.7273 19.22 99.7273 18.7C99.7273 17.9267 99.4873 17.2933 99.0073 16.8C98.5273 16.2933 97.914 16.0333 97.1673 16.02C96.6873 16.02 96.2473 16.14 95.8473 16.38C95.4607 16.6067 95.154 16.9267 94.9273 17.34C94.714 17.74 94.6073 18.2 94.6073 18.72C94.6073 19.2267 94.7207 19.6867 94.9473 20.1C95.174 20.5 95.4807 20.82 95.8673 21.06C96.254 21.3 96.6873 21.42 97.1673 21.42ZM107.702 23V12.22H109.522V14.32L109.222 14.14C109.489 13.46 109.915 12.9333 110.502 12.56C111.102 12.1733 111.802 11.98 112.602 11.98C113.375 11.98 114.062 12.1533 114.662 12.5C115.275 12.8467 115.755 13.3267 116.102 13.94C116.462 14.5533 116.642 15.2467 116.642 16.02V23H114.762V16.62C114.762 16.02 114.655 15.5133 114.442 15.1C114.229 14.6867 113.922 14.3667 113.522 14.14C113.135 13.9 112.689 13.78 112.182 13.78C111.675 13.78 111.222 13.9 110.822 14.14C110.435 14.3667 110.129 14.6933 109.902 15.12C109.675 15.5333 109.562 16.0333 109.562 16.62V23H107.702ZM119.468 27.4C119.228 27.4 118.988 27.38 118.748 27.34C118.508 27.3133 118.282 27.2533 118.068 27.16V25.5C118.215 25.5133 118.395 25.54 118.608 25.58C118.835 25.62 119.055 25.64 119.268 25.64C119.895 25.64 120.368 25.5 120.688 25.22C121.022 24.94 121.335 24.4667 121.628 23.8L122.308 22.18L122.268 23.8L117.668 12.22H119.688L123.268 21.42H122.668L126.228 12.22H128.288L123.428 24.28C123.202 24.8533 122.908 25.38 122.548 25.86C122.202 26.34 121.775 26.7133 121.268 26.98C120.762 27.26 120.162 27.4 119.468 27.4ZM134.428 23.24C133.414 23.24 132.501 22.9933 131.688 22.5C130.888 22.0067 130.254 21.3333 129.788 20.48C129.321 19.6267 129.088 18.6733 129.088 17.62C129.088 16.54 129.321 15.58 129.788 14.74C130.254 13.8867 130.888 13.2133 131.688 12.72C132.501 12.2267 133.414 11.98 134.428 11.98C135.321 11.98 136.114 12.1733 136.808 12.56C137.501 12.9333 138.048 13.44 138.448 14.08L138.148 14.54V7.86H140.028V23H138.208V20.7L138.448 21.02C138.074 21.7267 137.528 22.2733 136.808 22.66C136.101 23.0467 135.308 23.24 134.428 23.24ZM134.588 21.44C135.268 21.44 135.874 21.2733 136.408 20.94C136.941 20.6067 137.361 20.1533 137.668 19.58C137.988 18.9933 138.148 18.34 138.148 17.62C138.148 16.8867 137.988 16.2333 137.668 15.66C137.361 15.0733 136.941 14.6133 136.408 14.28C135.874 13.9467 135.268 13.78 134.588 13.78C133.921 13.78 133.314 13.9533 132.768 14.3C132.234 14.6333 131.814 15.0867 131.508 15.66C131.201 16.22 131.048 16.8733 131.048 17.62C131.048 18.34 131.201 18.9933 131.508 19.58C131.814 20.1533 132.234 20.6067 132.768 20.94C133.301 21.2733 133.908 21.44 134.588 21.44ZM145.847 23.24C145.14 23.24 144.513 23.1133 143.967 22.86C143.433 22.5933 143.013 22.2333 142.707 21.78C142.4 21.3133 142.247 20.78 142.247 20.18C142.247 19.6067 142.367 19.0933 142.607 18.64C142.86 18.1733 143.247 17.78 143.767 17.46C144.3 17.14 144.967 16.9133 145.767 16.78L149.767 16.12V17.68L146.187 18.28C145.493 18.4 144.987 18.62 144.667 18.94C144.36 19.26 144.207 19.6533 144.207 20.12C144.207 20.56 144.38 20.9267 144.727 21.22C145.087 21.5133 145.533 21.66 146.067 21.66C146.747 21.66 147.333 21.52 147.827 21.24C148.333 20.9467 148.727 20.5533 149.007 20.06C149.3 19.5667 149.447 19.02 149.447 18.42V15.68C149.447 15.0933 149.227 14.62 148.787 14.26C148.36 13.8867 147.793 13.7 147.087 13.7C146.473 13.7 145.927 13.86 145.447 14.18C144.98 14.4867 144.633 14.9 144.407 15.42L142.787 14.58C142.987 14.0867 143.307 13.6467 143.747 13.26C144.187 12.86 144.7 12.5467 145.287 12.32C145.873 12.0933 146.487 11.98 147.127 11.98C147.953 11.98 148.68 12.14 149.307 12.46C149.933 12.7667 150.42 13.2 150.767 13.76C151.127 14.3067 151.307 14.9467 151.307 15.68V23H149.487V20.96L149.827 21.08C149.6 21.5067 149.293 21.88 148.907 22.2C148.52 22.52 148.067 22.7733 147.547 22.96C147.027 23.1467 146.46 23.24 145.847 23.24ZM153.97 23V7.86H155.83V14.32L155.49 14.14C155.757 13.46 156.184 12.9333 156.77 12.56C157.37 12.1733 158.07 11.98 158.87 11.98C159.644 11.98 160.33 12.1533 160.93 12.5C161.544 12.8467 162.024 13.3267 162.37 13.94C162.73 14.5533 162.91 15.2467 162.91 16.02V23H161.03V16.62C161.03 16.02 160.917 15.5133 160.69 15.1C160.477 14.6867 160.177 14.3667 159.79 14.14C159.404 13.9 158.957 13.78 158.45 13.78C157.957 13.78 157.51 13.9 157.11 14.14C156.71 14.3667 156.397 14.6933 156.17 15.12C155.944 15.5333 155.83 16.0333 155.83 16.62V23H153.97ZM165.352 23V7.86H167.212V23H165.352ZM172.878 23L168.658 12.22H170.738L174.118 21.34H173.398L176.798 12.22H178.878L174.638 23H172.878ZM183.322 23L179.102 12.22H181.182L184.562 21.34H183.842L187.242 12.22H189.322L185.082 23H183.322ZM194.626 23.24C193.546 23.24 192.606 22.9733 191.806 22.44C191.006 21.9067 190.44 21.1867 190.106 20.28L191.586 19.56C191.893 20.2 192.313 20.7067 192.846 21.08C193.38 21.4533 193.973 21.64 194.626 21.64C195.213 21.64 195.7 21.5 196.086 21.22C196.473 20.94 196.666 20.5733 196.666 20.12C196.666 19.8 196.573 19.5467 196.386 19.36C196.213 19.16 196 19.0067 195.746 18.9C195.493 18.78 195.26 18.6933 195.046 18.64L193.426 18.18C192.453 17.9 191.74 17.5 191.286 16.98C190.846 16.46 190.626 15.8533 190.626 15.16C190.626 14.52 190.786 13.9667 191.106 13.5C191.44 13.02 191.886 12.6467 192.446 12.38C193.02 12.1133 193.66 11.98 194.366 11.98C195.313 11.98 196.16 12.22 196.906 12.7C197.666 13.18 198.206 13.8533 198.526 14.72L197.006 15.42C196.766 14.86 196.406 14.42 195.926 14.1C195.446 13.7667 194.906 13.6 194.306 13.6C193.76 13.6 193.326 13.74 193.006 14.02C192.686 14.2867 192.526 14.6267 192.526 15.04C192.526 15.3467 192.606 15.6 192.766 15.8C192.926 15.9867 193.12 16.1333 193.346 16.24C193.573 16.3333 193.793 16.4133 194.006 16.48L195.766 17C196.646 17.2533 197.326 17.6467 197.806 18.18C198.3 18.7133 198.546 19.3533 198.546 20.1C198.546 20.7 198.38 21.24 198.046 21.72C197.713 22.2 197.253 22.5733 196.666 22.84C196.08 23.1067 195.4 23.24 194.626 23.24ZM201.521 23V20.6H203.461V23H201.521ZM211.789 23.24C210.775 23.24 209.862 22.9933 209.049 22.5C208.249 22.0067 207.615 21.3333 207.149 20.48C206.682 19.6267 206.449 18.6733 206.449 17.62C206.449 16.54 206.682 15.58 207.149 14.74C207.615 13.8867 208.249 13.2133 209.049 12.72C209.862 12.2267 210.775 11.98 211.789 11.98C212.682 11.98 213.475 12.1733 214.169 12.56C214.862 12.9333 215.409 13.44 215.809 14.08L215.509 14.54V7.86H217.389V23H215.569V20.7L215.809 21.02C215.435 21.7267 214.889 22.2733 214.169 22.66C213.462 23.0467 212.669 23.24 211.789 23.24ZM211.949 21.44C212.629 21.44 213.235 21.2733 213.769 20.94C214.302 20.6067 214.722 20.1533 215.029 19.58C215.349 18.9933 215.509 18.34 215.509 17.62C215.509 16.8867 215.349 16.2333 215.029 15.66C214.722 15.0733 214.302 14.6133 213.769 14.28C213.235 13.9467 212.629 13.78 211.949 13.78C211.282 13.78 210.675 13.9533 210.129 14.3C209.595 14.6333 209.175 15.0867 208.869 15.66C208.562 16.22 208.409 16.8733 208.409 17.62C208.409 18.34 208.562 18.9933 208.869 19.58C209.175 20.1533 209.595 20.6067 210.129 20.94C210.662 21.2733 211.269 21.44 211.949 21.44ZM220.048 23V7.86H221.908V18.24L221.148 18.06L226.868 12.22H229.248L225.108 16.56L229.528 23H227.328L223.288 17.16L224.448 17.1L221.308 20.38L221.908 19.02V23H220.048Z" fill="#FF0202" fill-opacity="0.8"/>
<path d="M41 26.5H229.548V27.3H41V26.5Z" fill="#FF0202" fill-opacity="0.8"/>
<a href="tel:53309690">
<rect fill="black" fill-opacity="0" y="2.4" width="192" height="25.2"/>
</a>
</svg>
