<svg width="98" height="34" viewBox="0 0 98 34" fill="none" xmlns="http://www.w3.org/2000/svg">
<path d="M95.5089 0H66.3048C65.8261 0 65.3671 0.192359 65.0286 0.53476C64.6901 0.877161 64.5 1.34156 64.5 1.82578V31.3703C64.5 31.8545 64.6901 32.3189 65.0286 32.6613C65.3671 33.0037 65.8261 33.1961 66.3048 33.1961H82.0225V20.3326H77.7567V15.3532H82.0225V11.6186C81.9341 10.7418 82.0365 9.85612 82.3223 9.02358C82.6081 8.19104 83.0705 7.43185 83.6771 6.79924C84.2836 6.16663 85.0197 5.67593 85.8335 5.36156C86.6474 5.04719 87.5194 4.91676 88.3884 4.97941C89.6653 4.97146 90.9417 5.03796 92.2112 5.17859V9.66006H89.6025C87.5352 9.66006 87.1414 10.6559 87.1414 12.1V15.3034H92.0635L91.4236 20.2828H87.1414V33.1961H95.5089C95.7459 33.1961 95.9806 33.1488 96.1996 33.0571C96.4185 32.9653 96.6175 32.8309 96.7851 32.6613C96.9527 32.4918 97.0856 32.2905 97.1763 32.069C97.267 31.8475 97.3137 31.6101 97.3137 31.3703V1.82578C97.3137 1.58602 97.267 1.3486 97.1763 1.12709C97.0856 0.905573 96.9527 0.7043 96.7851 0.53476C96.6175 0.36522 96.4185 0.230734 96.1996 0.13898C95.9806 0.0472254 95.7459 0 95.5089 0Z" fill="#5988FF"/>
<path d="M30.3873 0.000233493H2.42636C2.11206 -0.00418256 1.79997 0.0540811 1.50792 0.171697C1.21587 0.289313 0.949588 0.463978 0.724274 0.685716C0.498959 0.907453 0.319028 1.17192 0.194756 1.46402C0.070484 1.75611 0.00430538 2.07011 0 2.38808V31.0088C0.00430538 31.3268 0.070484 31.6408 0.194756 31.9329C0.319028 32.225 0.498959 32.4895 0.724274 32.7112C0.949588 32.9329 1.21587 33.1076 1.50792 33.2252C1.79997 33.3428 2.11206 33.4011 2.42636 33.3967H30.3873C30.7016 33.4011 31.0137 33.3428 31.3058 33.2252C31.5978 33.1076 31.8641 32.9329 32.0894 32.7112C32.3147 32.4895 32.4947 32.225 32.6189 31.9329C32.7432 31.6408 32.8094 31.3268 32.8137 31.0088V2.38808C32.8094 2.07011 32.7432 1.75611 32.6189 1.46402C32.4947 1.17192 32.3147 0.907453 32.0894 0.685716C31.8641 0.463978 31.5978 0.289313 31.3058 0.171697C31.0137 0.0540811 30.7016 -0.00418256 30.3873 0.000233493ZM9.95304 27.9531H5.00128V12.9247H9.95304V27.9531ZM7.47716 10.8207C7.13902 10.8207 6.80419 10.7533 6.49178 10.6224C6.17938 10.4915 5.89552 10.2996 5.65642 10.0577C5.41732 9.81583 5.22765 9.52866 5.09825 9.21262C4.96885 8.89658 4.90224 8.55784 4.90224 8.21576C4.90224 7.87368 4.96885 7.53494 5.09825 7.2189C5.22765 6.90285 5.41732 6.61569 5.65642 6.3738C5.89552 6.13191 6.17938 5.94003 6.49178 5.80912C6.80419 5.67821 7.13902 5.61084 7.47716 5.61084C7.83979 5.56923 8.20701 5.60558 8.55479 5.71751C8.90257 5.82944 9.22305 6.01442 9.49526 6.26033C9.76748 6.50625 9.98527 6.80756 10.1344 7.14454C10.2835 7.48151 10.3606 7.84656 10.3606 8.21576C10.3606 8.58496 10.2835 8.95 10.1344 9.28698C9.98527 9.62396 9.76748 9.92527 9.49526 10.1712C9.22305 10.4171 8.90257 10.6021 8.55479 10.714C8.20701 10.8259 7.83979 10.8623 7.47716 10.8207ZM27.8124 27.9531H22.8606V19.8878C22.8606 17.8673 22.1509 16.5482 20.3517 16.5482C19.7949 16.5523 19.2528 16.729 18.7983 17.0544C18.3438 17.3799 17.9988 17.8384 17.8098 18.3683C17.6807 18.7608 17.6247 19.1741 17.6448 19.5872V27.9364H12.693C12.693 27.9364 12.693 14.2772 12.693 12.908H17.6448V15.0286C18.0946 14.239 18.7489 13.5884 19.5371 13.1471C20.3253 12.7057 21.2176 12.4903 22.1179 12.5239C25.419 12.5239 27.8124 14.678 27.8124 19.3034V27.9531Z" fill="#5988FF"/>
</svg>
