<svg width="160" height="31" viewBox="0 0 160 31" fill="none" xmlns="http://www.w3.org/2000/svg">
<path d="M50.737 23.24C49.9637 23.24 49.237 23.1067 48.557 22.84C47.877 22.56 47.2837 22.1667 46.777 21.66C46.2837 21.14 45.9237 20.5333 45.697 19.84L47.297 19.16C47.577 19.8933 48.0304 20.4667 48.657 20.88C49.297 21.28 49.9904 21.48 50.737 21.48C51.3504 21.48 51.8904 21.3467 52.357 21.08C52.837 20.8 53.2104 20.42 53.477 19.94C53.7437 19.4467 53.877 18.9 53.877 18.3C53.877 17.6733 53.737 17.12 53.457 16.64C53.1904 16.16 52.8237 15.7867 52.357 15.52C51.8904 15.24 51.357 15.1 50.757 15.1C50.1437 15.1 49.5837 15.24 49.077 15.52C48.5704 15.8 48.2037 16.1533 47.977 16.58L46.397 16.24L47.537 8.1H55.257V9.8H48.277L49.037 9.04L48.157 15.36L47.477 14.96C47.917 14.4 48.4304 14 49.017 13.76C49.617 13.5067 50.2637 13.38 50.957 13.38C51.9304 13.38 52.7837 13.6 53.517 14.04C54.2504 14.48 54.8237 15.0667 55.237 15.8C55.6504 16.5333 55.857 17.3667 55.857 18.3C55.857 19.2333 55.6304 20.0733 55.177 20.82C54.737 21.5667 54.1304 22.16 53.357 22.6C52.597 23.0267 51.7237 23.24 50.737 23.24ZM62.7213 23.24C61.9346 23.24 61.2013 23.1 60.5213 22.82C59.8413 22.54 59.2546 22.1467 58.7613 21.64C58.2679 21.12 57.9013 20.5067 57.6613 19.8L59.3213 19.12C59.6013 19.8667 60.0413 20.4467 60.6413 20.86C61.2413 21.2733 61.9346 21.48 62.7213 21.48C63.3346 21.48 63.8813 21.36 64.3613 21.12C64.8413 20.88 65.2146 20.5333 65.4813 20.08C65.7613 19.6267 65.9013 19.08 65.9013 18.44C65.9013 17.7867 65.7613 17.24 65.4813 16.8C65.2146 16.3467 64.8413 16 64.3613 15.76C63.8813 15.52 63.3279 15.4 62.7013 15.4C62.5013 15.4 62.2813 15.4133 62.0413 15.44C61.8146 15.4667 61.6213 15.5067 61.4613 15.56L61.0413 14.66L65.0213 9.8H58.4213V8.1H67.2413V9.74L63.4413 14.42L63.3213 13.9C64.2146 13.9267 65.0013 14.1333 65.6813 14.52C66.3613 14.9067 66.8946 15.4333 67.2813 16.1C67.6679 16.7533 67.8613 17.52 67.8613 18.4C67.8613 19.3067 67.6413 20.1267 67.2013 20.86C66.7613 21.5933 66.1546 22.1733 65.3813 22.6C64.6079 23.0267 63.7213 23.24 62.7213 23.24ZM77.9453 23.24C77.1586 23.24 76.4253 23.1 75.7453 22.82C75.0653 22.54 74.4786 22.1467 73.9853 21.64C73.492 21.12 73.1253 20.5067 72.8853 19.8L74.5453 19.12C74.8253 19.8667 75.2653 20.4467 75.8653 20.86C76.4653 21.2733 77.1586 21.48 77.9453 21.48C78.5586 21.48 79.1053 21.36 79.5853 21.12C80.0653 20.88 80.4386 20.5333 80.7053 20.08C80.9853 19.6267 81.1253 19.08 81.1253 18.44C81.1253 17.7867 80.9853 17.24 80.7053 16.8C80.4386 16.3467 80.0653 16 79.5853 15.76C79.1053 15.52 78.552 15.4 77.9253 15.4C77.7253 15.4 77.5053 15.4133 77.2653 15.44C77.0386 15.4667 76.8453 15.5067 76.6853 15.56L76.2653 14.66L80.2453 9.8H73.6453V8.1H82.4653V9.74L78.6653 14.42L78.5453 13.9C79.4386 13.9267 80.2253 14.1333 80.9053 14.52C81.5853 14.9067 82.1186 15.4333 82.5053 16.1C82.892 16.7533 83.0853 17.52 83.0853 18.4C83.0853 19.3067 82.8653 20.1267 82.4253 20.86C81.9853 21.5933 81.3786 22.1733 80.6053 22.6C79.832 23.0267 78.9453 23.24 77.9453 23.24ZM91.3123 23.24C90.1257 23.24 89.0857 22.92 88.1923 22.28C87.3123 21.6267 86.6257 20.7267 86.1323 19.58C85.639 18.42 85.3923 17.0733 85.3923 15.54C85.3923 14.0067 85.639 12.6667 86.1323 11.52C86.6257 10.36 87.3123 9.46 88.1923 8.82C89.0723 8.18 90.1057 7.86 91.2923 7.86C92.479 7.86 93.5123 8.18 94.3923 8.82C95.2723 9.46 95.959 10.36 96.4523 11.52C96.959 12.6667 97.2123 14.0067 97.2123 15.54C97.2123 17.0733 96.9657 18.42 96.4723 19.58C95.979 20.74 95.2857 21.64 94.3923 22.28C93.5123 22.92 92.4857 23.24 91.3123 23.24ZM91.3123 21.42C92.1123 21.42 92.8057 21.18 93.3923 20.7C93.979 20.2067 94.4323 19.52 94.7523 18.64C95.0857 17.76 95.2523 16.7267 95.2523 15.54C95.2523 14.3533 95.0857 13.32 94.7523 12.44C94.4323 11.56 93.9723 10.88 93.3723 10.4C92.7857 9.92 92.0923 9.68 91.2923 9.68C90.4923 9.68 89.799 9.92 89.2123 10.4C88.6257 10.88 88.1657 11.56 87.8323 12.44C87.5123 13.32 87.3523 14.3533 87.3523 15.54C87.3523 16.7133 87.5123 17.74 87.8323 18.62C88.1657 19.5 88.6257 20.1867 89.2123 20.68C89.8123 21.1733 90.5123 21.42 91.3123 21.42ZM104.102 23L109.242 16.3L109.602 16.34C109.402 16.6067 109.182 16.82 108.942 16.98C108.702 17.1267 108.435 17.2333 108.142 17.3C107.862 17.3667 107.555 17.4 107.222 17.4C106.342 17.4 105.549 17.2 104.842 16.8C104.149 16.3867 103.595 15.8267 103.182 15.12C102.782 14.4 102.582 13.58 102.582 12.66C102.582 11.74 102.795 10.92 103.222 10.2C103.649 9.48 104.235 8.91333 104.982 8.5C105.729 8.07333 106.569 7.86 107.502 7.86C108.462 7.86 109.309 8.07333 110.042 8.5C110.789 8.91333 111.375 9.49333 111.802 10.24C112.229 10.9733 112.442 11.82 112.442 12.78C112.442 13.3 112.382 13.8133 112.262 14.32C112.142 14.8267 111.949 15.34 111.682 15.86C111.429 16.38 111.089 16.92 110.662 17.48L106.462 23H104.102ZM107.502 15.68C108.075 15.68 108.582 15.5533 109.022 15.3C109.475 15.0333 109.829 14.6733 110.082 14.22C110.335 13.7533 110.462 13.2333 110.462 12.66C110.462 12.06 110.329 11.5333 110.062 11.08C109.809 10.6267 109.462 10.2667 109.022 10C108.582 9.73333 108.075 9.6 107.502 9.6C106.942 9.6 106.442 9.73333 106.002 10C105.562 10.2667 105.209 10.6267 104.942 11.08C104.689 11.5333 104.562 12.06 104.562 12.66C104.562 13.2333 104.689 13.7533 104.942 14.22C105.195 14.6733 105.542 15.0333 105.982 15.3C106.435 15.5533 106.942 15.68 107.502 15.68ZM118.924 23.24C117.964 23.24 117.111 23.0267 116.364 22.6C115.631 22.1733 115.051 21.5933 114.624 20.86C114.197 20.1133 113.984 19.2667 113.984 18.32C113.984 17.8 114.044 17.2867 114.164 16.78C114.284 16.2733 114.477 15.76 114.744 15.24C115.011 14.72 115.351 14.18 115.764 13.62L119.964 8.1H122.324L117.184 14.78L116.824 14.74C117.024 14.4733 117.244 14.2667 117.484 14.12C117.737 13.9733 118.004 13.8667 118.284 13.8C118.577 13.7333 118.884 13.7 119.204 13.7C120.084 13.7 120.871 13.9067 121.564 14.32C122.271 14.72 122.824 15.2733 123.224 15.98C123.637 16.6867 123.844 17.5 123.844 18.42C123.844 19.34 123.631 20.1667 123.204 20.9C122.777 21.62 122.191 22.1933 121.444 22.62C120.711 23.0333 119.871 23.24 118.924 23.24ZM118.924 21.48C119.484 21.48 119.984 21.3533 120.424 21.1C120.864 20.8333 121.211 20.4667 121.464 20C121.731 19.5333 121.864 19.0133 121.864 18.44C121.864 17.84 121.737 17.32 121.484 16.88C121.231 16.4267 120.884 16.0667 120.444 15.8C120.004 15.5333 119.497 15.4 118.924 15.4C118.364 15.4 117.857 15.5333 117.404 15.8C116.951 16.0667 116.597 16.4267 116.344 16.88C116.091 17.32 115.964 17.84 115.964 18.44C115.964 19.0133 116.091 19.5333 116.344 20C116.611 20.4667 116.964 20.8333 117.404 21.1C117.857 21.3533 118.364 21.48 118.924 21.48ZM130.454 23L135.594 16.3L135.954 16.34C135.754 16.6067 135.534 16.82 135.294 16.98C135.054 17.1267 134.787 17.2333 134.494 17.3C134.214 17.3667 133.907 17.4 133.574 17.4C132.694 17.4 131.9 17.2 131.194 16.8C130.5 16.3867 129.947 15.8267 129.534 15.12C129.134 14.4 128.934 13.58 128.934 12.66C128.934 11.74 129.147 10.92 129.574 10.2C130 9.48 130.587 8.91333 131.334 8.5C132.08 8.07333 132.92 7.86 133.854 7.86C134.814 7.86 135.66 8.07333 136.394 8.5C137.14 8.91333 137.727 9.49333 138.154 10.24C138.58 10.9733 138.794 11.82 138.794 12.78C138.794 13.3 138.734 13.8133 138.614 14.32C138.494 14.8267 138.3 15.34 138.034 15.86C137.78 16.38 137.44 16.92 137.014 17.48L132.814 23H130.454ZM133.854 15.68C134.427 15.68 134.934 15.5533 135.374 15.3C135.827 15.0333 136.18 14.6733 136.434 14.22C136.687 13.7533 136.814 13.2333 136.814 12.66C136.814 12.06 136.68 11.5333 136.414 11.08C136.16 10.6267 135.814 10.2667 135.374 10C134.934 9.73333 134.427 9.6 133.854 9.6C133.294 9.6 132.794 9.73333 132.354 10C131.914 10.2667 131.56 10.6267 131.294 11.08C131.04 11.5333 130.914 12.06 130.914 12.66C130.914 13.2333 131.04 13.7533 131.294 14.22C131.547 14.6733 131.894 15.0333 132.334 15.3C132.787 15.5533 133.294 15.68 133.854 15.68ZM146.906 23.24C145.72 23.24 144.68 22.92 143.786 22.28C142.906 21.6267 142.22 20.7267 141.726 19.58C141.233 18.42 140.986 17.0733 140.986 15.54C140.986 14.0067 141.233 12.6667 141.726 11.52C142.22 10.36 142.906 9.46 143.786 8.82C144.666 8.18 145.7 7.86 146.886 7.86C148.073 7.86 149.106 8.18 149.986 8.82C150.866 9.46 151.553 10.36 152.046 11.52C152.553 12.6667 152.806 14.0067 152.806 15.54C152.806 17.0733 152.56 18.42 152.066 19.58C151.573 20.74 150.88 21.64 149.986 22.28C149.106 22.92 148.08 23.24 146.906 23.24ZM146.906 21.42C147.706 21.42 148.4 21.18 148.986 20.7C149.573 20.2067 150.026 19.52 150.346 18.64C150.68 17.76 150.846 16.7267 150.846 15.54C150.846 14.3533 150.68 13.32 150.346 12.44C150.026 11.56 149.566 10.88 148.966 10.4C148.38 9.92 147.686 9.68 146.886 9.68C146.086 9.68 145.393 9.92 144.806 10.4C144.22 10.88 143.76 11.56 143.426 12.44C143.106 13.32 142.946 14.3533 142.946 15.54C142.946 16.7133 143.106 17.74 143.426 18.62C143.76 19.5 144.22 20.1867 144.806 20.68C145.406 21.1733 146.106 21.42 146.906 21.42Z" fill="#FF0202" fill-opacity="0.8"/>
<path d="M44.737 26.5H154.126V27.3H44.737V26.5Z" fill="#FF0202" fill-opacity="0.8"/>
<a href="tel:53309690">
<rect fill="black" fill-opacity="0" x="3.23703" y="2.4" width="109.389" height="25.2"/>
</a>
<path d="M26.9992 23.466V27.38C27.0007 27.7434 26.9261 28.1031 26.7802 28.436C26.6344 28.7689 26.4205 29.0678 26.1522 29.3134C25.8839 29.559 25.5672 29.7461 25.2223 29.8625C24.8774 29.9789 24.5119 30.0221 24.1493 29.9894C20.1266 29.5532 16.2626 28.1813 12.8676 25.984C9.70898 23.9809 7.03104 21.3083 5.02394 18.1559C2.81462 14.7523 1.43971 10.8771 1.01061 6.84433C0.977943 6.48355 1.02091 6.11992 1.13676 5.77661C1.25262 5.43331 1.43884 5.11783 1.68355 4.85029C1.92827 4.58274 2.22612 4.36897 2.55815 4.2226C2.89018 4.07623 3.24911 4.00047 3.61208 4.00013H7.5339C8.16833 3.99389 8.78338 4.21811 9.26442 4.63098C9.74546 5.04386 10.0597 5.61721 10.1484 6.24418C10.314 7.49676 10.621 8.72664 11.0635 9.91034C11.2394 10.3773 11.2775 10.8848 11.1732 11.3727C11.069 11.8606 10.8267 12.3085 10.4753 12.6632L8.81503 14.3202C10.676 17.5865 13.3859 20.291 16.6587 22.1483L18.3189 20.4913C18.6743 20.1405 19.1231 19.8988 19.612 19.7947C20.1008 19.6907 20.6093 19.7287 21.0772 19.9042C22.2633 20.3459 23.4956 20.6523 24.7507 20.8175C25.3857 20.9069 25.9657 21.2261 26.3802 21.7145C26.7948 22.2028 27.0151 22.8261 26.9992 23.466Z" stroke="black" stroke-width="2" stroke-linecap="round" stroke-linejoin="round"/>
</svg>
