<svg width="302" height="124" viewBox="0 0 302 124" fill="none" xmlns="http://www.w3.org/2000/svg">
<path d="M166.72 38.5115V46.0539C166.723 46.7541 166.58 47.4472 166.302 48.0888C166.023 48.7303 165.614 49.3062 165.1 49.7796C164.587 50.2529 163.982 50.6133 163.322 50.8376C162.663 51.0619 161.964 51.1453 161.27 51.0822C153.577 50.2416 146.188 47.598 139.695 43.3638C133.655 39.5037 128.534 34.3535 124.695 28.2788C120.47 21.7199 117.841 14.2523 117.02 6.4811C116.958 5.78586 117.04 5.08515 117.262 4.42358C117.483 3.76202 117.839 3.15409 118.307 2.63852C118.775 2.12295 119.345 1.71102 119.98 1.42896C120.615 1.14691 121.301 1.0009 121.995 1.00024H129.495C130.709 0.988235 131.885 1.42031 132.805 2.21592C133.725 3.01154 134.325 4.11641 134.495 5.32459C134.812 7.73835 135.399 10.1083 136.245 12.3894C136.582 13.2892 136.654 14.2672 136.455 15.2074C136.256 16.1476 135.792 17.0107 135.12 17.6942L131.945 20.8872C135.504 27.1815 140.686 32.3931 146.945 35.9722L150.12 32.7792C150.8 32.1032 151.658 31.6374 152.593 31.4369C153.528 31.2363 154.5 31.3095 155.395 31.6478C157.663 32.499 160.02 33.0894 162.42 33.4077C163.635 33.58 164.744 34.1952 165.537 35.1362C166.329 36.0772 166.751 37.2785 166.72 38.5115Z" stroke="#EB0000" stroke-width="2" stroke-linecap="round" stroke-linejoin="round"/>
<rect y="59" width="302" height="65" rx="6" fill="white"/>
<path d="M105.161 78.0398C105.051 77.6951 104.903 77.3864 104.718 77.1136C104.536 76.8371 104.318 76.6023 104.064 76.4091C103.811 76.2121 103.521 76.0625 103.195 75.9602C102.873 75.858 102.519 75.8068 102.132 75.8068C101.477 75.8068 100.886 75.9754 100.36 76.3125C99.8333 76.6496 99.4166 77.1439 99.1098 77.7955C98.8067 78.4432 98.6552 79.2367 98.6552 80.1761C98.6552 81.1193 98.8086 81.9167 99.1155 82.5682C99.4223 83.2197 99.8427 83.714 100.377 84.0511C100.911 84.3883 101.519 84.5568 102.201 84.5568C102.833 84.5568 103.384 84.428 103.854 84.1705C104.328 83.9129 104.693 83.5492 104.951 83.0795C105.212 82.6061 105.343 82.0492 105.343 81.4091L105.797 81.4943H102.468V80.0455H107.042V81.3693C107.042 82.3466 106.833 83.1951 106.417 83.9148C106.004 84.6307 105.432 85.1837 104.701 85.5739C103.973 85.964 103.14 86.1591 102.201 86.1591C101.148 86.1591 100.223 85.9167 99.428 85.4318C98.6363 84.947 98.0189 84.2595 97.5757 83.3693C97.1325 82.4754 96.9109 81.4148 96.9109 80.1875C96.9109 79.2595 97.0397 78.4261 97.2973 77.6875C97.5548 76.9489 97.9166 76.322 98.3825 75.8068C98.8522 75.2879 99.4033 74.892 100.036 74.6193C100.672 74.3428 101.367 74.2045 102.121 74.2045C102.75 74.2045 103.335 74.2973 103.877 74.483C104.422 74.6686 104.907 74.9318 105.331 75.2727C105.759 75.6136 106.114 76.0189 106.394 76.4886C106.674 76.9545 106.864 77.4716 106.962 78.0398H105.161ZM109.505 86V77.2727H111.204V86H109.505ZM110.363 75.9261C110.067 75.9261 109.814 75.8277 109.601 75.6307C109.393 75.4299 109.289 75.1913 109.289 74.9148C109.289 74.6345 109.393 74.3958 109.601 74.1989C109.814 73.9981 110.067 73.8977 110.363 73.8977C110.658 73.8977 110.91 73.9981 111.118 74.1989C111.331 74.3958 111.437 74.6345 111.437 74.9148C111.437 75.1913 111.331 75.4299 111.118 75.6307C110.91 75.8277 110.658 75.9261 110.363 75.9261ZM120.779 77.2727L117.614 86H115.796L112.626 77.2727H114.45L116.66 83.9886H116.751L118.955 77.2727H120.779ZM129.934 86.1761C129.116 86.1761 128.402 85.9886 127.792 85.6136C127.182 85.2386 126.709 84.714 126.372 84.0398C126.035 83.3655 125.866 82.5777 125.866 81.6761C125.866 80.7708 126.035 79.9792 126.372 79.3011C126.709 78.6231 127.182 78.0966 127.792 77.7216C128.402 77.3466 129.116 77.1591 129.934 77.1591C130.752 77.1591 131.466 77.3466 132.076 77.7216C132.686 78.0966 133.16 78.6231 133.497 79.3011C133.834 79.9792 134.002 80.7708 134.002 81.6761C134.002 82.5777 133.834 83.3655 133.497 84.0398C133.16 84.714 132.686 85.2386 132.076 85.6136C131.466 85.9886 130.752 86.1761 129.934 86.1761ZM129.94 84.75C130.47 84.75 130.91 84.6098 131.258 84.3295C131.607 84.0492 131.864 83.6761 132.031 83.2102C132.201 82.7443 132.286 82.2311 132.286 81.6705C132.286 81.1136 132.201 80.6023 132.031 80.1364C131.864 79.6667 131.607 79.2898 131.258 79.0057C130.91 78.7216 130.47 78.5795 129.94 78.5795C129.406 78.5795 128.963 78.7216 128.61 79.0057C128.262 79.2898 128.002 79.6667 127.832 80.1364C127.665 80.6023 127.582 81.1136 127.582 81.6705C127.582 82.2311 127.665 82.7443 127.832 83.2102C128.002 83.6761 128.262 84.0492 128.61 84.3295C128.963 84.6098 129.406 84.75 129.94 84.75ZM142.262 79.4034L140.723 79.6761C140.658 79.4792 140.556 79.2917 140.416 79.1136C140.279 78.9356 140.094 78.7898 139.859 78.6761C139.624 78.5625 139.331 78.5057 138.978 78.5057C138.497 78.5057 138.096 78.6136 137.774 78.8295C137.452 79.0417 137.291 79.3163 137.291 79.6534C137.291 79.9451 137.399 80.1799 137.615 80.358C137.831 80.536 138.179 80.6818 138.66 80.7955L140.047 81.1136C140.85 81.2992 141.448 81.5852 141.842 81.9716C142.236 82.358 142.433 82.8598 142.433 83.4773C142.433 84 142.281 84.4659 141.978 84.875C141.679 85.2803 141.261 85.5985 140.723 85.8295C140.189 86.0606 139.569 86.1761 138.865 86.1761C137.887 86.1761 137.09 85.9678 136.473 85.5511C135.855 85.1307 135.476 84.5341 135.336 83.7614L136.978 83.5114C137.081 83.9394 137.291 84.2633 137.609 84.483C137.927 84.6989 138.342 84.8068 138.853 84.8068C139.41 84.8068 139.855 84.6913 140.189 84.4602C140.522 84.2254 140.689 83.9394 140.689 83.6023C140.689 83.3295 140.586 83.1004 140.382 82.9148C140.181 82.7292 139.872 82.589 139.456 82.4943L137.978 82.1705C137.164 81.9848 136.562 81.6894 136.172 81.2841C135.785 80.8788 135.592 80.3655 135.592 79.7443C135.592 79.2292 135.736 78.7784 136.024 78.392C136.312 78.0057 136.709 77.7045 137.217 77.4886C137.725 77.2689 138.306 77.1591 138.961 77.1591C139.904 77.1591 140.647 77.3636 141.189 77.7727C141.73 78.178 142.088 78.7216 142.262 79.4034ZM151.945 86.1761C151.085 86.1761 150.344 85.9924 149.723 85.625C149.106 85.2538 148.628 84.733 148.291 84.0625C147.958 83.3883 147.791 82.5985 147.791 81.6932C147.791 80.7992 147.958 80.0114 148.291 79.3295C148.628 78.6477 149.098 78.1155 149.7 77.733C150.306 77.3504 151.015 77.1591 151.825 77.1591C152.318 77.1591 152.795 77.2405 153.257 77.4034C153.719 77.5663 154.134 77.822 154.501 78.1705C154.869 78.5189 155.159 78.9716 155.371 79.5284C155.583 80.0814 155.689 80.7538 155.689 81.5455V82.1477H148.751V80.875H154.024C154.024 80.428 153.933 80.0322 153.751 79.6875C153.57 79.339 153.314 79.0644 152.984 78.8636C152.659 78.6629 152.276 78.5625 151.837 78.5625C151.359 78.5625 150.943 78.6799 150.587 78.9148C150.234 79.1458 149.962 79.4489 149.768 79.8239C149.579 80.1951 149.484 80.5985 149.484 81.0341V82.0284C149.484 82.6117 149.587 83.108 149.791 83.517C149.999 83.9261 150.289 84.2386 150.66 84.4545C151.032 84.6667 151.465 84.7727 151.962 84.7727C152.284 84.7727 152.577 84.7273 152.842 84.6364C153.107 84.5417 153.337 84.4015 153.53 84.2159C153.723 84.0303 153.871 83.8011 153.973 83.5284L155.581 83.8182C155.452 84.2917 155.221 84.7064 154.888 85.0625C154.558 85.4148 154.143 85.6894 153.643 85.8864C153.147 86.0795 152.581 86.1761 151.945 86.1761ZM161.472 77.2727V78.6364H156.705V77.2727H161.472ZM157.983 75.1818H159.682V83.4375C159.682 83.767 159.731 84.0152 159.83 84.1818C159.928 84.3447 160.055 84.4564 160.21 84.517C160.369 84.5739 160.542 84.6023 160.727 84.6023C160.864 84.6023 160.983 84.5928 161.085 84.5739C161.188 84.5549 161.267 84.5398 161.324 84.5284L161.631 85.9318C161.532 85.9697 161.392 86.0076 161.21 86.0455C161.028 86.0871 160.801 86.1098 160.528 86.1136C160.082 86.1212 159.665 86.0417 159.278 85.875C158.892 85.7083 158.58 85.4508 158.341 85.1023C158.102 84.7538 157.983 84.3163 157.983 83.7898V75.1818ZM168.796 83.0398L168.784 80.9659H169.08L172.557 77.2727H174.591L170.625 81.4773H170.358L168.796 83.0398ZM167.233 86V74.3636H168.932V86H167.233ZM172.745 86L169.62 81.8523L170.79 80.6648L174.83 86H172.745ZM178.503 86.1932C177.95 86.1932 177.45 86.0909 177.003 85.8864C176.556 85.678 176.202 85.3769 175.941 84.983C175.683 84.589 175.554 84.1061 175.554 83.5341C175.554 83.0417 175.649 82.6364 175.839 82.3182C176.028 82 176.284 81.7481 176.606 81.5625C176.928 81.3769 177.287 81.2367 177.685 81.142C178.083 81.0473 178.488 80.9754 178.901 80.9261C179.424 80.8655 179.848 80.8163 180.174 80.7784C180.5 80.7367 180.736 80.6705 180.884 80.5795C181.032 80.4886 181.106 80.3409 181.106 80.1364V80.0966C181.106 79.6004 180.965 79.2159 180.685 78.9432C180.409 78.6705 179.996 78.5341 179.447 78.5341C178.875 78.5341 178.424 78.661 178.094 78.9148C177.768 79.1648 177.543 79.4432 177.418 79.75L175.822 79.3864C176.011 78.8561 176.287 78.428 176.651 78.1023C177.018 77.7727 177.441 77.5341 177.918 77.3864C178.395 77.2348 178.897 77.1591 179.424 77.1591C179.772 77.1591 180.142 77.2008 180.532 77.2841C180.926 77.3636 181.293 77.5114 181.634 77.7273C181.979 77.9432 182.261 78.2519 182.481 78.6534C182.7 79.0511 182.81 79.5682 182.81 80.2045V86H181.151V84.8068H181.083C180.973 85.0265 180.808 85.2424 180.589 85.4545C180.369 85.6667 180.087 85.8428 179.742 85.983C179.397 86.1231 178.984 86.1932 178.503 86.1932ZM178.873 84.8295C179.342 84.8295 179.744 84.7367 180.077 84.5511C180.414 84.3655 180.67 84.1231 180.844 83.8239C181.022 83.5208 181.111 83.197 181.111 82.8523V81.7273C181.051 81.7879 180.933 81.8447 180.759 81.8977C180.589 81.947 180.393 81.9905 180.174 82.0284C179.954 82.0625 179.74 82.0947 179.532 82.125C179.323 82.1515 179.149 82.1742 179.009 82.1932C178.679 82.2348 178.378 82.3049 178.106 82.4034C177.837 82.5019 177.621 82.6439 177.458 82.8295C177.299 83.0114 177.219 83.2538 177.219 83.5568C177.219 83.9773 177.375 84.2955 177.685 84.5114C177.996 84.7235 178.392 84.8295 178.873 84.8295ZM186.596 74.3636V86H184.897V74.3636H186.596ZM191.972 86.1705C191.268 86.1705 190.639 85.9905 190.086 85.6307C189.537 85.267 189.105 84.75 188.791 84.0795C188.48 83.4053 188.325 82.5966 188.325 81.6534C188.325 80.7102 188.482 79.9034 188.796 79.233C189.114 78.5625 189.55 78.0492 190.103 77.6932C190.656 77.3371 191.283 77.1591 191.984 77.1591C192.525 77.1591 192.961 77.25 193.291 77.4318C193.624 77.6098 193.881 77.8182 194.063 78.0568C194.249 78.2955 194.393 78.5057 194.495 78.6875H194.597V74.3636H196.296V86H194.637V84.642H194.495C194.393 84.8277 194.245 85.0398 194.052 85.2784C193.862 85.517 193.601 85.7254 193.268 85.9034C192.934 86.0814 192.503 86.1705 191.972 86.1705ZM192.347 84.7216C192.836 84.7216 193.249 84.5928 193.586 84.3352C193.927 84.0739 194.184 83.7121 194.359 83.25C194.537 82.7879 194.626 82.25 194.626 81.6364C194.626 81.0303 194.539 80.5 194.364 80.0455C194.19 79.5909 193.934 79.2367 193.597 78.983C193.26 78.7292 192.844 78.6023 192.347 78.6023C191.836 78.6023 191.41 78.7348 191.069 79C190.728 79.2652 190.47 79.6269 190.296 80.0852C190.126 80.5436 190.041 81.0606 190.041 81.6364C190.041 82.2197 190.128 82.7443 190.302 83.2102C190.476 83.6761 190.734 84.0455 191.075 84.3182C191.419 84.5871 191.844 84.7216 192.347 84.7216ZM203.723 86.108C203.412 86.108 203.145 85.9981 202.921 85.7784C202.698 85.5549 202.586 85.286 202.586 84.9716C202.586 84.661 202.698 84.3958 202.921 84.1761C203.145 83.9527 203.412 83.8409 203.723 83.8409C204.033 83.8409 204.3 83.9527 204.524 84.1761C204.747 84.3958 204.859 84.661 204.859 84.9716C204.859 85.1799 204.806 85.3712 204.7 85.5455C204.598 85.7159 204.461 85.8523 204.291 85.9545C204.12 86.0568 203.931 86.108 203.723 86.108ZM203.723 79.7557C203.412 79.7557 203.145 79.6439 202.921 79.4205C202.698 79.197 202.586 78.9299 202.586 78.6193C202.586 78.3087 202.698 78.0436 202.921 77.8239C203.145 77.6004 203.412 77.4886 203.723 77.4886C204.033 77.4886 204.3 77.6004 204.524 77.8239C204.747 78.0436 204.859 78.3087 204.859 78.6193C204.859 78.8277 204.806 79.0189 204.7 79.1932C204.598 79.3636 204.461 79.5 204.291 79.6023C204.12 79.7045 203.931 79.7557 203.723 79.7557ZM89.9137 108.045V100.364H91.4422V108.045H89.9137ZM86.8399 104.966V103.443H94.5217V104.966H86.8399ZM100.765 107.727V106.307L105.793 98.3636H106.913V100.455H106.202L102.606 106.148V106.239H109.498V107.727H100.765ZM106.282 110V107.295L106.293 106.648V98.3636H107.958V110H106.282ZM115.143 110.159C114.431 110.159 113.791 110.023 113.222 109.75C112.658 109.473 112.207 109.095 111.87 108.614C111.533 108.133 111.353 107.583 111.33 106.966H113.035C113.077 107.466 113.298 107.877 113.7 108.199C114.101 108.521 114.582 108.682 115.143 108.682C115.59 108.682 115.986 108.58 116.33 108.375C116.679 108.167 116.952 107.881 117.149 107.517C117.349 107.153 117.45 106.739 117.45 106.273C117.45 105.799 117.347 105.377 117.143 105.006C116.938 104.634 116.656 104.343 116.296 104.131C115.94 103.919 115.531 103.811 115.069 103.807C114.717 103.807 114.363 103.867 114.006 103.989C113.65 104.11 113.363 104.269 113.143 104.466L111.535 104.227L112.188 98.3636H118.586V99.8693H113.649L113.279 103.125H113.347C113.575 102.905 113.876 102.722 114.251 102.574C114.63 102.426 115.035 102.352 115.467 102.352C116.175 102.352 116.806 102.521 117.359 102.858C117.916 103.195 118.353 103.655 118.671 104.239C118.993 104.818 119.152 105.485 119.149 106.239C119.152 106.992 118.982 107.665 118.637 108.256C118.296 108.847 117.823 109.312 117.217 109.653C116.614 109.991 115.923 110.159 115.143 110.159ZM128.947 110.159C128.235 110.159 127.595 110.023 127.027 109.75C126.462 109.473 126.011 109.095 125.674 108.614C125.337 108.133 125.157 107.583 125.135 106.966H126.839C126.881 107.466 127.102 107.877 127.504 108.199C127.905 108.521 128.386 108.682 128.947 108.682C129.394 108.682 129.79 108.58 130.135 108.375C130.483 108.167 130.756 107.881 130.953 107.517C131.154 107.153 131.254 106.739 131.254 106.273C131.254 105.799 131.152 105.377 130.947 105.006C130.743 104.634 130.46 104.343 130.101 104.131C129.744 103.919 129.335 103.811 128.873 103.807C128.521 103.807 128.167 103.867 127.811 103.989C127.455 104.11 127.167 104.269 126.947 104.466L125.339 104.227L125.993 98.3636H132.39V99.8693H127.453L127.083 103.125H127.152C127.379 102.905 127.68 102.722 128.055 102.574C128.434 102.426 128.839 102.352 129.271 102.352C129.979 102.352 130.61 102.521 131.163 102.858C131.72 103.195 132.157 103.655 132.476 104.239C132.797 104.818 132.957 105.485 132.953 106.239C132.957 106.992 132.786 107.665 132.441 108.256C132.101 108.847 131.627 109.312 131.021 109.653C130.419 109.991 129.727 110.159 128.947 110.159ZM138.903 110.159C138.123 110.159 137.426 110.025 136.812 109.756C136.202 109.487 135.719 109.114 135.363 108.636C135.011 108.155 134.822 107.598 134.795 106.966H136.579C136.602 107.311 136.718 107.61 136.926 107.864C137.138 108.114 137.415 108.307 137.755 108.443C138.096 108.58 138.475 108.648 138.892 108.648C139.35 108.648 139.755 108.568 140.108 108.409C140.464 108.25 140.742 108.028 140.943 107.744C141.144 107.456 141.244 107.125 141.244 106.75C141.244 106.36 141.144 106.017 140.943 105.722C140.746 105.422 140.456 105.187 140.074 105.017C139.695 104.847 139.237 104.761 138.699 104.761H137.716V103.33H138.699C139.13 103.33 139.509 103.252 139.835 103.097C140.165 102.941 140.422 102.725 140.608 102.449C140.793 102.169 140.886 101.841 140.886 101.466C140.886 101.106 140.805 100.794 140.642 100.528C140.483 100.259 140.255 100.049 139.96 99.8977C139.668 99.7462 139.324 99.6705 138.926 99.6705C138.547 99.6705 138.193 99.7405 137.863 99.8807C137.538 100.017 137.273 100.214 137.068 100.472C136.863 100.725 136.754 101.03 136.738 101.386H135.04C135.059 100.758 135.244 100.205 135.596 99.7273C135.952 99.25 136.422 98.8769 137.005 98.608C137.589 98.339 138.237 98.2045 138.949 98.2045C139.695 98.2045 140.339 98.3504 140.88 98.642C141.426 98.9299 141.846 99.3144 142.142 99.7955C142.441 100.277 142.589 100.803 142.585 101.375C142.589 102.027 142.407 102.58 142.04 103.034C141.676 103.489 141.191 103.794 140.585 103.949V104.04C141.358 104.157 141.956 104.464 142.38 104.96C142.809 105.456 143.021 106.072 143.017 106.807C143.021 107.447 142.843 108.021 142.483 108.528C142.127 109.036 141.64 109.436 141.023 109.727C140.405 110.015 139.699 110.159 138.903 110.159ZM153.098 110.159C152.318 110.159 151.621 110.025 151.007 109.756C150.397 109.487 149.914 109.114 149.558 108.636C149.206 108.155 149.017 107.598 148.99 106.966H150.774C150.797 107.311 150.912 107.61 151.121 107.864C151.333 108.114 151.609 108.307 151.95 108.443C152.291 108.58 152.67 108.648 153.087 108.648C153.545 108.648 153.95 108.568 154.303 108.409C154.659 108.25 154.937 108.028 155.138 107.744C155.339 107.456 155.439 107.125 155.439 106.75C155.439 106.36 155.339 106.017 155.138 105.722C154.941 105.422 154.651 105.187 154.269 105.017C153.89 104.847 153.431 104.761 152.894 104.761H151.911V103.33H152.894C153.325 103.33 153.704 103.252 154.03 103.097C154.359 102.941 154.617 102.725 154.803 102.449C154.988 102.169 155.081 101.841 155.081 101.466C155.081 101.106 155 100.794 154.837 100.528C154.678 100.259 154.45 100.049 154.155 99.8977C153.863 99.7462 153.519 99.6705 153.121 99.6705C152.742 99.6705 152.388 99.7405 152.058 99.8807C151.733 100.017 151.467 100.214 151.263 100.472C151.058 100.725 150.948 101.03 150.933 101.386H149.234C149.253 100.758 149.439 100.205 149.791 99.7273C150.147 99.25 150.617 98.8769 151.2 98.608C151.784 98.339 152.431 98.2045 153.144 98.2045C153.89 98.2045 154.534 98.3504 155.075 98.642C155.621 98.9299 156.041 99.3144 156.337 99.7955C156.636 100.277 156.784 100.803 156.78 101.375C156.784 102.027 156.602 102.58 156.234 103.034C155.871 103.489 155.386 103.794 154.78 103.949V104.04C155.553 104.157 156.151 104.464 156.575 104.96C157.003 105.456 157.216 106.072 157.212 106.807C157.216 107.447 157.037 108.021 156.678 108.528C156.322 109.036 155.835 109.436 155.217 109.727C154.6 110.015 153.894 110.159 153.098 110.159ZM163.235 110.193C162.337 110.189 161.57 109.953 160.933 109.483C160.297 109.013 159.81 108.33 159.473 107.432C159.136 106.534 158.968 105.453 158.968 104.188C158.968 102.926 159.136 101.848 159.473 100.955C159.814 100.061 160.303 99.3788 160.939 98.9091C161.579 98.4394 162.344 98.2045 163.235 98.2045C164.125 98.2045 164.888 98.4413 165.524 98.9148C166.161 99.3845 166.647 100.066 166.985 100.96C167.325 101.85 167.496 102.926 167.496 104.188C167.496 105.456 167.327 106.54 166.99 107.438C166.653 108.331 166.166 109.015 165.53 109.489C164.894 109.958 164.129 110.193 163.235 110.193ZM163.235 108.676C164.022 108.676 164.638 108.292 165.081 107.523C165.528 106.754 165.752 105.642 165.752 104.188C165.752 103.222 165.649 102.405 165.445 101.739C165.244 101.068 164.954 100.561 164.575 100.216C164.2 99.8674 163.754 99.6932 163.235 99.6932C162.45 99.6932 161.835 100.08 161.388 100.852C160.941 101.625 160.716 102.737 160.712 104.188C160.712 105.157 160.812 105.977 161.013 106.648C161.218 107.314 161.507 107.82 161.882 108.165C162.257 108.506 162.708 108.676 163.235 108.676ZM177.263 98.2045C177.782 98.2083 178.294 98.303 178.797 98.4886C179.301 98.6742 179.756 98.9773 180.161 99.3977C180.57 99.8182 180.896 100.386 181.138 101.102C181.384 101.814 181.509 102.701 181.513 103.761C181.513 104.78 181.411 105.687 181.206 106.483C181.002 107.275 180.708 107.943 180.326 108.489C179.947 109.034 179.487 109.449 178.945 109.733C178.403 110.017 177.794 110.159 177.116 110.159C176.422 110.159 175.807 110.023 175.269 109.75C174.731 109.477 174.294 109.1 173.956 108.619C173.619 108.134 173.409 107.578 173.326 106.949H175.059C175.172 107.449 175.403 107.854 175.752 108.165C176.104 108.472 176.559 108.625 177.116 108.625C177.968 108.625 178.633 108.254 179.11 107.511C179.587 106.765 179.828 105.723 179.831 104.386H179.741C179.544 104.712 179.297 104.992 179.002 105.227C178.71 105.462 178.383 105.644 178.019 105.773C177.655 105.902 177.267 105.966 176.854 105.966C176.184 105.966 175.574 105.801 175.025 105.472C174.475 105.142 174.038 104.689 173.712 104.114C173.386 103.538 173.223 102.881 173.223 102.142C173.223 101.407 173.39 100.741 173.723 100.142C174.061 99.5436 174.53 99.0701 175.133 98.7216C175.739 98.3693 176.449 98.197 177.263 98.2045ZM177.269 99.6818C176.826 99.6818 176.426 99.7917 176.07 100.011C175.718 100.227 175.439 100.521 175.235 100.892C175.03 101.259 174.928 101.669 174.928 102.119C174.928 102.57 175.027 102.979 175.223 103.347C175.424 103.71 175.697 104 176.042 104.216C176.39 104.428 176.788 104.534 177.235 104.534C177.568 104.534 177.879 104.47 178.167 104.341C178.455 104.212 178.706 104.034 178.922 103.807C179.138 103.576 179.307 103.314 179.428 103.023C179.549 102.731 179.61 102.424 179.61 102.102C179.61 101.674 179.508 101.277 179.303 100.909C179.102 100.542 178.826 100.246 178.473 100.023C178.121 99.7955 177.72 99.6818 177.269 99.6818ZM187.452 110.159C186.933 110.152 186.422 110.057 185.918 109.875C185.418 109.693 184.964 109.39 184.555 108.966C184.146 108.542 183.818 107.972 183.572 107.256C183.329 106.54 183.208 105.646 183.208 104.574C183.208 103.559 183.308 102.657 183.509 101.869C183.714 101.081 184.007 100.417 184.39 99.875C184.772 99.3295 185.235 98.9148 185.776 98.6307C186.318 98.3466 186.926 98.2045 187.6 98.2045C188.293 98.2045 188.909 98.3409 189.447 98.6136C189.985 98.8864 190.42 99.2633 190.753 99.7443C191.091 100.225 191.305 100.773 191.396 101.386H189.663C189.545 100.902 189.312 100.506 188.964 100.199C188.615 99.892 188.161 99.7386 187.6 99.7386C186.748 99.7386 186.083 100.11 185.606 100.852C185.132 101.595 184.894 102.627 184.89 103.949H184.975C185.176 103.619 185.422 103.339 185.714 103.108C186.009 102.873 186.339 102.693 186.702 102.568C187.07 102.439 187.456 102.375 187.861 102.375C188.536 102.375 189.146 102.54 189.691 102.869C190.24 103.195 190.678 103.646 191.003 104.222C191.329 104.797 191.492 105.456 191.492 106.199C191.492 106.941 191.324 107.614 190.986 108.216C190.653 108.818 190.183 109.295 189.577 109.648C188.971 109.996 188.263 110.167 187.452 110.159ZM187.447 108.682C187.894 108.682 188.293 108.572 188.646 108.352C188.998 108.133 189.276 107.837 189.481 107.466C189.685 107.095 189.788 106.68 189.788 106.222C189.788 105.775 189.687 105.367 189.486 105C189.289 104.633 189.017 104.341 188.668 104.125C188.324 103.909 187.93 103.801 187.486 103.801C187.149 103.801 186.837 103.866 186.549 103.994C186.265 104.123 186.015 104.301 185.799 104.528C185.583 104.756 185.413 105.017 185.288 105.312C185.166 105.604 185.106 105.913 185.106 106.239C185.106 106.674 185.206 107.078 185.407 107.449C185.611 107.82 185.89 108.119 186.242 108.347C186.598 108.57 187 108.682 187.447 108.682ZM201.313 98.2045C201.832 98.2083 202.344 98.303 202.847 98.4886C203.351 98.6742 203.806 98.9773 204.211 99.3977C204.62 99.8182 204.946 100.386 205.188 101.102C205.435 101.814 205.56 102.701 205.563 103.761C205.563 104.78 205.461 105.687 205.257 106.483C205.052 107.275 204.758 107.943 204.376 108.489C203.997 109.034 203.537 109.449 202.995 109.733C202.454 110.017 201.844 110.159 201.166 110.159C200.472 110.159 199.857 110.023 199.319 109.75C198.781 109.477 198.344 109.1 198.007 108.619C197.669 108.134 197.459 107.578 197.376 106.949H199.109C199.222 107.449 199.454 107.854 199.802 108.165C200.154 108.472 200.609 108.625 201.166 108.625C202.018 108.625 202.683 108.254 203.16 107.511C203.637 106.765 203.878 105.723 203.882 104.386H203.791C203.594 104.712 203.347 104.992 203.052 105.227C202.76 105.462 202.433 105.644 202.069 105.773C201.705 105.902 201.317 105.966 200.904 105.966C200.234 105.966 199.624 105.801 199.075 105.472C198.526 105.142 198.088 104.689 197.762 104.114C197.436 103.538 197.274 102.881 197.274 102.142C197.274 101.407 197.44 100.741 197.774 100.142C198.111 99.5436 198.58 99.0701 199.183 98.7216C199.789 98.3693 200.499 98.197 201.313 98.2045ZM201.319 99.6818C200.876 99.6818 200.476 99.7917 200.12 100.011C199.768 100.227 199.49 100.521 199.285 100.892C199.08 101.259 198.978 101.669 198.978 102.119C198.978 102.57 199.077 102.979 199.274 103.347C199.474 103.71 199.747 104 200.092 104.216C200.44 104.428 200.838 104.534 201.285 104.534C201.618 104.534 201.929 104.47 202.217 104.341C202.505 104.212 202.757 104.034 202.972 103.807C203.188 103.576 203.357 103.314 203.478 103.023C203.599 102.731 203.66 102.424 203.66 102.102C203.66 101.674 203.558 101.277 203.353 100.909C203.152 100.542 202.876 100.246 202.524 100.023C202.171 99.7955 201.77 99.6818 201.319 99.6818ZM211.491 110.193C210.593 110.189 209.826 109.953 209.19 109.483C208.554 109.013 208.067 108.33 207.73 107.432C207.393 106.534 207.224 105.453 207.224 104.188C207.224 102.926 207.393 101.848 207.73 100.955C208.071 100.061 208.559 99.3788 209.196 98.9091C209.836 98.4394 210.601 98.2045 211.491 98.2045C212.381 98.2045 213.144 98.4413 213.781 98.9148C214.417 99.3845 214.904 100.066 215.241 100.96C215.582 101.85 215.752 102.926 215.752 104.188C215.752 105.456 215.584 106.54 215.247 107.438C214.91 108.331 214.423 109.015 213.787 109.489C213.15 109.958 212.385 110.193 211.491 110.193ZM211.491 108.676C212.279 108.676 212.894 108.292 213.338 107.523C213.785 106.754 214.008 105.642 214.008 104.188C214.008 103.222 213.906 102.405 213.701 101.739C213.501 101.068 213.211 100.561 212.832 100.216C212.457 99.8674 212.01 99.6932 211.491 99.6932C210.707 99.6932 210.091 100.08 209.644 100.852C209.198 101.625 208.972 102.737 208.968 104.188C208.968 105.157 209.069 105.977 209.269 106.648C209.474 107.314 209.764 107.82 210.139 108.165C210.514 108.506 210.965 108.676 211.491 108.676Z" fill="black" fill-opacity="0.8"/>
</svg>
